<svg width="398" height="246" viewBox="0 0 398 246" fill="none" xmlns="http://www.w3.org/2000/svg">
<g clip-path="url(#clip0_541_2752)">
<path opacity="0.1" d="M398.001 158C398.008 164.665 397.206 171.306 395.612 177.776C395.076 179.956 394.453 182.091 393.743 184.18C392.875 186.759 391.869 189.289 390.729 191.759C390.155 193.009 389.548 194.233 388.908 195.433C388.918 202.268 387.518 209.03 384.795 215.294C379.874 226.531 371.098 235.617 360.067 240.896C353.17 244.203 345.633 245.942 337.991 245.99H75.5547C63.8784 246.015 52.4038 242.932 42.2974 237.056L42.142 236.968C40.7025 236.121 39.299 235.225 37.9316 234.278C34.8549 232.143 31.9644 229.748 29.2911 227.121C25.6729 223.568 22.4846 219.598 19.7924 215.294C13.4694 205.205 10.1198 193.522 10.1315 181.599C3.72807 170.309 -0.00585938 156.784 -0.00585938 142.251C-0.00585938 123.915 5.92788 107.188 15.6767 94.5264C17.7091 91.881 19.9354 89.3919 22.3369 87.0798C24.7065 84.7919 27.2534 82.6971 29.9535 80.815C32.1137 79.3075 34.3715 77.9463 36.7117 76.7403C37.6883 76.2411 38.6682 75.7691 39.6651 75.3311C40.5403 74.9406 41.4256 74.5773 42.3211 74.2343C43.3956 73.8246 44.4837 73.4477 45.5853 73.1036C46.6869 72.7595 47.7738 72.4584 48.8461 72.2004C50.4231 71.8133 52.027 71.4986 53.658 71.2564C55.0097 71.056 56.3613 70.9168 57.713 70.8116C58.7875 70.7301 59.8722 70.6859 60.9637 70.6723H61.555C62.758 70.6723 63.9542 70.7199 65.1403 70.8014C65.2653 70.5501 65.4005 70.2954 65.5255 70.0476C65.9986 69.1409 66.4885 68.2377 66.9819 67.3549C66.9808 67.347 66.9808 67.339 66.9819 67.3311C67.0664 67.1749 67.1509 67.0221 67.2387 66.8727C67.6375 66.1494 68.0531 65.433 68.4789 64.7233C68.6749 64.3837 68.8675 64.0645 69.0668 63.7453C69.109 63.666 69.1552 63.589 69.2054 63.5145C69.4081 63.1749 69.6142 62.8353 69.8237 62.4958C70.8668 60.8206 71.9515 59.1749 73.0778 57.5586L73.3651 57.1443C73.5408 56.8931 73.703 56.6486 73.899 56.3973C74.3653 55.742 74.8451 55.0832 75.3283 54.438C75.6663 53.9762 76.0042 53.5178 76.3691 53.0798C77.2477 51.948 78.1488 50.8161 79.0724 49.6842C79.996 48.5524 80.9557 47.4352 81.9514 46.3328C82.0866 46.18 82.2218 46.0306 82.3637 45.8812L83.8066 44.2988C83.8775 44.2241 83.9383 44.1562 84.0059 44.0883C84.1783 43.9015 84.3438 43.7148 84.5297 43.5348C85.3035 42.7097 86.0976 41.9015 86.8951 41.0968C90.9536 37.0348 95.2772 33.2494 99.8371 29.7657C100.016 29.6231 100.199 29.4873 100.378 29.3515C101.236 28.7029 102.108 28.0611 102.98 27.4296C107.775 23.9727 112.788 20.8309 117.986 18.0238C118.345 17.8167 118.71 17.6231 119.078 17.433C123.739 14.9552 128.532 12.7379 133.436 10.7912C136.109 9.72837 138.842 8.73007 141.593 7.81665C143.424 7.21224 145.263 6.63839 147.125 6.09849C150.035 5.25638 152.966 4.50143 155.917 3.83363C164.611 1.87331 173.456 0.662348 182.355 0.213937C185.059 0.0758501 187.792 0.00454375 190.556 1.63011e-05C203.894 -0.017727 217.179 1.67101 230.092 5.02548C230.226 5.22823 230.408 5.39351 230.623 5.50578C230.838 5.61805 231.077 5.67362 231.319 5.66725H232.454C232.948 5.80307 233.438 5.9389 233.931 6.08151C236.686 6.87834 239.402 7.74874 242.078 8.69272L242.754 8.9372C249.359 11.2975 255.786 14.1345 261.984 17.4262C267.572 20.3863 272.951 23.7262 278.086 27.4228C278.877 27.9932 279.656 28.5682 280.424 29.1477C281.357 28.5478 282.305 27.9729 283.27 27.4228C286.993 25.2918 290.948 23.5976 295.056 22.3735C303.645 19.8194 312.733 19.4623 321.494 21.3345C332.73 23.7284 342.901 29.6706 351.116 38.1223C354.46 41.5803 357.438 45.3789 359.999 49.4567C360.185 49.7487 360.371 50.0442 360.55 50.343C362.752 53.9521 364.644 57.7428 366.207 61.674C366.264 61.8201 366.322 61.9559 366.372 62.0985C367.815 65.7797 368.978 69.5652 369.853 73.4228C369.893 73.6197 369.941 73.8133 369.981 74.0102C370.799 77.7434 371.355 81.5298 371.644 85.3413C371.644 85.4771 371.644 85.6163 371.671 85.7589C371.813 87.7306 371.885 89.7227 371.887 91.7352C371.887 93.5348 371.826 95.3209 371.715 97.0934C371.715 97.287 371.688 97.4873 371.671 97.6876C371.64 98.2004 371.596 98.7063 371.553 99.2224C374.133 101.314 376.549 103.604 378.777 106.071C379.762 107.151 380.714 108.272 381.636 109.433C384.442 112.967 386.909 116.761 389.002 120.764C394.716 131.603 398.001 144.353 398.001 158Z" fill="#C4C4C4"/>
<path opacity="0.1" d="M359.815 239.64C359.815 241.959 351.864 244.132 337.99 246H75.5534C63.8771 246.025 52.4024 242.943 42.2961 237.066L42.1406 236.978C46.128 235.518 53.3255 234.156 63.1216 232.927L63.5609 232.873C67.9538 232.333 72.8636 231.82 78.2297 231.334C78.3648 231.334 78.5034 231.314 78.6385 231.297C82.8962 230.917 87.4254 230.56 92.226 230.228C92.3781 230.228 92.5267 230.2 92.6788 230.194C94.5306 230.06 96.4206 229.933 98.349 229.813L99.0924 229.766C113.133 228.89 129.092 228.19 146.4 227.728H146.42C148.844 227.66 151.294 227.6 153.77 227.548C156.523 227.483 159.31 227.425 162.13 227.375C164.282 227.328 166.462 227.294 168.648 227.26H168.699C178.563 227.11 188.754 227.036 199.175 227.036C224.944 227.036 249.301 227.508 270.884 228.357H270.944C274.263 228.486 277.52 228.628 280.697 228.774L283.4 228.903C286.984 229.075 290.476 229.26 293.875 229.457C333.85 231.742 359.815 235.453 359.815 239.64Z" fill="#C4C4C4"/>
<g opacity="0.2">
<path opacity="0.2" d="M229.875 225.477C229.865 225.843 229.823 226.208 229.75 226.567C227.399 226.191 225.033 225.852 222.654 225.548C222.654 225.453 222.654 225.355 222.654 225.256C222.676 224.238 222.968 223.244 223.499 222.377C224.195 221.27 225.253 220.577 226.419 220.615C227.584 220.652 228.595 221.409 229.22 222.553C229.693 223.452 229.919 224.461 229.875 225.477Z" fill="#3F3D56"/>
<path opacity="0.2" d="M230.071 219.675C230.153 217.049 228.602 214.868 226.606 214.805C224.61 214.742 222.925 216.819 222.843 219.445C222.76 222.071 224.311 224.251 226.307 224.315C228.303 224.378 229.988 222.301 230.071 219.675Z" fill="#3F3D56"/>
<path opacity="0.2" d="M230.254 213.861C230.337 211.235 228.786 209.055 226.79 208.992C224.794 208.928 223.109 211.006 223.026 213.632C222.944 216.258 224.495 218.438 226.491 218.501C228.487 218.565 230.172 216.487 230.254 213.861Z" fill="#3F3D56"/>
<path opacity="0.2" d="M230.436 208.048C230.518 205.422 228.967 203.242 226.972 203.178C224.976 203.115 223.291 205.192 223.208 207.818C223.126 210.444 224.677 212.625 226.672 212.688C228.668 212.751 230.353 210.674 230.436 208.048Z" fill="#3F3D56"/>
<path opacity="0.2" d="M230.616 202.234C230.698 199.608 229.147 197.428 227.151 197.365C225.155 197.301 223.47 199.379 223.388 202.005C223.305 204.631 224.856 206.811 226.852 206.875C228.848 206.938 230.533 204.86 230.616 202.234Z" fill="#3F3D56"/>
<path opacity="0.2" d="M214.704 161.898C214.228 161.251 213.799 160.57 213.42 159.861L222.969 158.594L212.69 158.346C211.772 156.16 211.308 153.808 211.326 151.436C211.344 149.063 211.844 146.719 212.794 144.547L226.351 152.17L213.933 142.377C215.186 140.341 216.843 138.586 218.801 137.223C220.759 135.859 222.975 134.916 225.312 134.452C227.649 133.988 230.057 134.013 232.383 134.525C234.71 135.038 236.907 136.028 238.836 137.432C240.766 138.836 242.386 140.625 243.596 142.686C244.807 144.748 245.581 147.039 245.871 149.415C246.161 151.791 245.96 154.201 245.282 156.496C244.603 158.79 243.46 160.919 241.926 162.75C242.666 163.757 243.295 164.843 243.801 165.986L231.268 172.031L244.558 168.014C245.395 170.789 245.53 173.73 244.951 176.57C244.371 179.411 243.096 182.061 241.24 184.282C243.169 186.912 244.323 190.036 244.57 193.294C244.816 196.553 244.144 199.815 242.632 202.709C241.12 205.602 238.828 208.009 236.019 209.655C233.209 211.301 229.996 212.12 226.745 212.017C223.494 211.914 220.338 210.894 217.638 209.073C214.937 207.252 212.8 204.705 211.473 201.722C210.145 198.738 209.68 195.44 210.13 192.203C210.58 188.967 211.927 185.923 214.018 183.419C211.712 180.276 210.526 176.444 210.648 172.541C210.771 168.638 212.196 164.89 214.693 161.898H214.704Z" fill="#C4C4C4"/>
<path opacity="0.1" d="M245.295 173.64C245.177 177.545 243.747 181.296 241.24 184.282C243.169 186.912 244.323 190.036 244.569 193.294C244.816 196.553 244.144 199.815 242.632 202.709C241.12 205.602 238.828 208.009 236.019 209.655C233.209 211.301 229.996 212.12 226.745 212.017C223.494 211.914 220.338 210.894 217.638 209.073C214.937 207.252 212.8 204.705 211.473 201.722C210.145 198.738 209.68 195.44 210.13 192.203C210.58 188.967 211.927 185.923 214.018 183.419C211.798 180.387 245.356 171.688 245.295 173.64Z" fill="black"/>
</g>
<g opacity="0.2">
<path opacity="0.2" d="M178.512 225.477C178.501 225.843 178.46 226.208 178.387 226.567C176.035 226.191 173.67 225.852 171.291 225.548C171.291 225.453 171.291 225.355 171.291 225.256C171.313 224.238 171.605 223.244 172.136 222.377C172.832 221.27 173.89 220.577 175.055 220.615C176.221 220.652 177.231 221.409 177.857 222.553C178.329 223.452 178.556 224.461 178.512 225.477Z" fill="#3F3D56"/>
<path opacity="0.2" d="M178.703 219.676C178.786 217.05 177.235 214.87 175.239 214.806C173.243 214.743 171.558 216.821 171.476 219.447C171.393 222.073 172.944 224.253 174.94 224.316C176.936 224.38 178.621 222.302 178.703 219.676Z" fill="#3F3D56"/>
<path opacity="0.2" d="M178.887 213.863C178.97 211.237 177.419 209.056 175.423 208.993C173.427 208.93 171.742 211.007 171.659 213.633C171.577 216.259 173.128 218.439 175.124 218.503C177.119 218.566 178.804 216.489 178.887 213.863Z" fill="#3F3D56"/>
<path opacity="0.2" d="M179.069 208.049C179.151 205.423 177.6 203.243 175.604 203.18C173.608 203.116 171.924 205.194 171.841 207.82C171.758 210.446 173.309 212.626 175.305 212.689C177.301 212.753 178.986 210.675 179.069 208.049Z" fill="#3F3D56"/>
<path opacity="0.2" d="M179.248 202.236C179.331 199.61 177.78 197.43 175.784 197.366C173.788 197.303 172.103 199.38 172.021 202.006C171.938 204.632 173.489 206.813 175.485 206.876C177.481 206.939 179.166 204.862 179.248 202.236Z" fill="#3F3D56"/>
<path opacity="0.2" d="M163.34 161.898C162.864 161.251 162.435 160.57 162.056 159.861L171.606 158.594L161.326 158.346C160.409 156.16 159.945 153.808 159.963 151.436C159.981 149.063 160.481 146.719 161.431 144.547L174.988 152.17L162.57 142.377C163.823 140.341 165.48 138.586 167.438 137.223C169.395 135.859 171.612 134.916 173.949 134.452C176.286 133.988 178.693 134.013 181.02 134.525C183.347 135.038 185.544 136.028 187.473 137.432C189.402 138.836 191.023 140.625 192.233 142.686C193.443 144.748 194.218 147.039 194.508 149.415C194.798 151.791 194.597 154.201 193.918 156.496C193.239 158.79 192.097 160.919 190.563 162.75C191.303 163.757 191.932 164.843 192.438 165.986L179.905 172.031L193.195 168.014C194.032 170.789 194.167 173.73 193.587 176.57C193.008 179.411 191.732 182.061 189.877 184.282C191.806 186.912 192.96 190.036 193.206 193.294C193.452 196.553 192.781 199.815 191.269 202.709C189.757 205.602 187.465 208.009 184.656 209.655C181.846 211.301 178.632 212.12 175.382 212.017C172.131 211.914 168.975 210.894 166.274 209.073C163.574 207.252 161.437 204.705 160.109 201.722C158.782 198.738 158.316 195.44 158.766 192.203C159.216 188.967 160.564 185.923 162.654 183.419C160.349 180.276 159.162 176.444 159.285 172.541C159.408 168.638 160.832 164.89 163.33 161.898H163.34Z" fill="#C4C4C4"/>
<path opacity="0.1" d="M193.931 173.64C193.813 177.545 192.384 181.296 189.877 184.282C191.806 186.912 192.96 190.036 193.206 193.294C193.452 196.553 192.781 199.815 191.269 202.709C189.757 205.602 187.465 208.009 184.656 209.655C181.846 211.301 178.632 212.12 175.382 212.017C172.131 211.914 168.975 210.894 166.274 209.073C163.574 207.252 161.437 204.705 160.109 201.722C158.782 198.738 158.316 195.44 158.766 192.203C159.216 188.967 160.564 185.923 162.654 183.419C160.434 180.387 193.992 171.688 193.931 173.64Z" fill="black"/>
</g>
<g opacity="0.2">
<path opacity="0.2" d="M318.814 229.192C318.788 229.886 318.705 230.576 318.567 231.256C314.039 230.53 309.478 229.88 304.885 229.307C304.885 229.124 304.885 228.937 304.885 228.747C304.928 226.786 305.49 224.872 306.514 223.202C307.865 221.073 309.893 219.739 312.133 219.806C314.373 219.874 316.323 221.338 317.54 223.542C318.457 225.278 318.897 227.228 318.814 229.192Z" fill="#3F3D56"/>
<path opacity="0.2" d="M319.181 218.012C319.34 212.955 316.352 208.757 312.508 208.635C308.663 208.513 305.418 212.513 305.259 217.57C305.1 222.627 308.087 226.826 311.932 226.948C315.776 227.07 319.021 223.07 319.181 218.012Z" fill="#3F3D56"/>
<path opacity="0.2" d="M319.532 206.82C319.691 201.763 316.704 197.565 312.859 197.443C309.015 197.321 305.769 201.321 305.61 206.378C305.451 211.435 308.439 215.634 312.283 215.756C316.128 215.878 319.373 211.877 319.532 206.82Z" fill="#3F3D56"/>
<path opacity="0.2" d="M319.888 195.628C320.047 190.571 317.059 186.373 313.215 186.251C309.37 186.129 306.125 190.129 305.966 195.186C305.807 200.243 308.794 204.442 312.639 204.564C316.483 204.686 319.728 200.686 319.888 195.628Z" fill="#3F3D56"/>
<path opacity="0.2" d="M319.843 183.927C319.994 178.868 316.998 174.672 313.152 174.556C309.306 174.44 306.065 178.448 305.914 183.507C305.763 188.567 308.759 192.763 312.605 192.879C316.451 192.994 319.692 188.987 319.843 183.927Z" fill="#3F3D56"/>
<path opacity="0.2" d="M289.601 106.795C288.689 105.548 287.864 104.24 287.131 102.879L305.513 100.441L285.729 99.9626C283.961 95.7538 283.067 91.2269 283.101 86.6588C283.135 82.0908 284.096 77.5777 285.925 73.3956L312.028 88.0679L288.124 69.2156C290.541 65.3053 293.734 61.937 297.503 59.3209C301.272 56.7047 305.537 54.8966 310.032 54.0094C314.527 53.1221 319.156 53.1747 323.63 54.1637C328.104 55.1528 332.327 57.0573 336.036 59.7584C339.746 62.4595 342.862 65.8993 345.19 69.8635C347.519 73.8278 349.01 78.2314 349.57 82.8C350.131 87.3687 349.749 92.0044 348.448 96.4182C347.148 100.832 344.957 104.929 342.011 108.455C343.435 110.395 344.646 112.484 345.624 114.686L321.493 126.329L347.077 118.587C348.689 123.923 348.951 129.579 347.84 135.043C346.729 140.506 344.28 145.605 340.714 149.878C344.428 154.942 346.648 160.955 347.122 167.228C347.595 173.501 346.303 179.781 343.392 185.35C340.48 190.92 336.068 195.554 330.66 198.722C325.251 201.891 319.065 203.466 312.807 203.268C306.55 203.07 300.474 201.106 295.275 197.601C290.076 194.097 285.964 189.193 283.407 183.45C280.851 177.707 279.955 171.358 280.821 165.127C281.686 158.897 284.28 153.037 288.304 148.217C283.868 142.165 281.585 134.791 281.82 127.279C282.055 119.766 284.796 112.551 289.601 106.791V106.795Z" fill="#C4C4C4"/>
<path opacity="0.1" d="M348.5 129.396C348.278 136.91 345.539 144.129 340.728 149.885C344.441 154.949 346.662 160.962 347.136 167.234C347.609 173.507 346.316 179.788 343.405 185.357C340.494 190.927 336.082 195.561 330.674 198.729C325.265 201.898 319.079 203.473 312.821 203.275C306.564 203.076 300.488 201.113 295.289 197.608C290.09 194.104 285.977 189.2 283.421 183.457C280.865 177.714 279.968 171.365 280.834 165.134C281.7 158.903 284.293 153.043 288.317 148.224C284.012 142.38 348.618 125.637 348.5 129.396Z" fill="black"/>
</g>
<path d="M53.3301 229.789L56.8748 229.779H61.8725L68.1915 126.628L130.769 21.6944L128.049 18.7606V11.3311L60.3722 124.197L53.3301 229.789Z" fill="#F1C0C0"/>
<path opacity="0.1" d="M57.252 229.779H61.8712L68.1902 126.628L130.768 21.6944L128.048 18.7606L63.5 125.056L57.252 229.779Z" fill="black"/>
<path d="M42.8848 230.649L205.032 243.117L205.171 243.127L362.094 233.43L362.212 233.423V226.764L189.302 223.576L45.044 223.436H43.9897L43.8748 224.183L42.8848 230.649Z" fill="#F1C0C0"/>
<path opacity="0.1" d="M42.8848 230.649L205.032 243.117L205.171 243.127L362.094 233.43L362.212 233.301V226.903H362.073L205.032 232.173L45.044 223.436H45.0204L44.7365 223.623L43.8748 224.183L42.8848 230.649Z" fill="black"/>
<path opacity="0.1" d="M42.8848 230.649L205.032 243.117V232.173L44.7365 223.623L43.8748 224.183L42.8848 230.649Z" fill="black"/>
<path d="M128.027 18.6214L199.513 95.7216L197.303 231.341L203.375 232.078L203.476 232.092H209.549L210.275 101.545L344.132 146.475L346.39 226.475L351.276 227.026L352.932 227.212L349.1 140.927L209.17 91.562L132.444 11.4092H128.027V18.6214Z" fill="#F1C0C0"/>
<path opacity="0.1" d="M209.725 99.0493L210.275 101.545L344.133 146.475L346.39 226.475L351.276 227.025L347.444 144.812L209.725 99.0493Z" fill="black"/>
<path opacity="0.1" d="M128.027 18.6214L199.513 95.7216L197.303 231.341L203.375 232.078L205.031 91.2836L128.027 11.4092V18.6214Z" fill="black"/>
<path d="M209.986 153.477L259.082 163.192L259.099 163.195L345.087 180.217L349.024 178.632L349.01 178.353L348.753 172.835L210.037 144.669L209.986 153.477Z" fill="#F1C0C0"/>
<path opacity="0.1" d="M259.098 163.195L345.086 180.217L349.023 178.632L349.009 178.353L259.098 163.195Z" fill="black"/>
<path d="M262.385 119.036L263.713 192.496L264.399 230.183L270.444 229.98L274.249 229.851L273.066 120.098L270.444 119.222L269.87 119.036H262.385Z" fill="#F1C0C0"/>
<path opacity="0.1" d="M262.439 119.019V119.036L263.713 192.496L264.399 230.183L270.445 229.98V119.019H262.439Z" fill="black"/>
<path d="M167.692 137.796C168.046 137.99 168.385 138.211 168.705 138.458C169.084 138.791 169.424 139.166 169.719 139.576C171.169 141.46 172.507 143.65 172.365 146.027C172.368 146.373 172.303 146.716 172.174 147.037C172.044 147.357 171.853 147.649 171.611 147.895C171.013 148.407 170.155 148.431 169.371 148.431C168.519 148.431 167.624 148.431 166.887 147.99C166.151 147.548 165.536 146.689 164.664 146.71C164.541 146.73 164.415 146.73 164.292 146.71C163.991 146.611 163.931 146.214 163.735 145.963C163.397 145.511 162.684 145.623 162.153 145.82C161.623 146.017 161.035 146.312 160.511 146.085C160.207 145.924 159.958 145.674 159.798 145.368C158.544 143.331 158.277 140.883 158.041 138.516C157.895 137.076 156.787 132.166 159.845 133.284C161.197 133.772 162.461 134.75 163.691 135.467L167.692 137.796Z" fill="#3F3D56"/>
<path d="M164.671 138.282C164.944 138.479 165.275 138.579 165.611 138.566C165.947 138.552 166.269 138.426 166.526 138.207C167.029 137.75 167.35 137.125 167.428 136.448C167.766 136.343 167.938 136.788 168.155 137.059C168.533 137.521 169.304 137.514 169.648 138.007C169.888 138.346 169.834 138.818 170.003 139.202C170.223 139.698 170.767 139.956 171.138 140.357C171.489 140.794 171.743 141.303 171.882 141.847L172.436 143.518C172.701 144.213 172.872 144.94 172.943 145.681C172.978 146.051 172.939 146.425 172.829 146.78C172.719 147.135 172.539 147.464 172.301 147.749C171.557 148.553 170.338 148.638 169.26 148.615C168.9 148.622 168.54 148.58 168.192 148.489C167.235 148.19 166.624 147.222 166.37 146.248C166.117 145.273 166.144 144.251 165.995 143.253C165.835 142.272 165.551 141.316 165.151 140.407C164.853 139.701 164.035 138.649 164.049 137.898C164.292 137.898 164.468 138.122 164.671 138.282Z" fill="#3F3D56"/>
<path d="M165.885 134.842C165.727 134.36 165.635 133.858 165.611 133.351C165.611 132.333 166.074 131.375 166.54 130.465L162.678 130.992C162.212 131.056 161.691 131.151 161.428 131.542C161.328 131.735 161.275 131.95 161.275 132.168C161.275 132.386 161.328 132.601 161.428 132.795C161.621 133.182 161.775 133.588 161.887 134.007C161.896 134.373 161.938 134.738 162.012 135.097C162.133 135.36 162.301 135.599 162.509 135.8C163.614 137.029 164.442 138.479 165.266 139.915C165.243 139.874 167.595 138.044 167.5 137.447C167.446 137.107 166.767 136.699 166.551 136.374C166.252 135.9 166.027 135.384 165.885 134.842Z" fill="#BE6F72"/>
<path d="M199 121.576V124.92L142.004 136.092L139.047 137.891H128.846V136.007L184.845 122.411L199 121.576Z" fill="#F1C0C0"/>
<path opacity="0.1" d="M199 124.92L142.004 136.092L139.047 137.891H128.846L185.26 125.759L199 124.92Z" fill="black"/>
<path d="M153.24 216.523C152.605 215.75 151.729 215.216 150.753 215.008C149.778 214.799 148.761 214.929 147.868 215.375C147.676 215.466 147.508 215.598 147.374 215.762C147.036 216.238 147.253 216.893 147.283 217.48C147.361 218.913 146.225 220.078 145.205 221.08C144.657 221.616 144.1 222.19 143.853 222.92C143.607 223.65 143.789 224.577 144.451 224.958C144.74 225.103 145.055 225.191 145.377 225.216C146.457 225.427 147.565 225.458 148.655 225.307C149.733 225.1 150.791 224.486 151.257 223.487C151.347 223.217 151.496 222.969 151.693 222.764C152.288 222.292 153.2 222.845 153.876 222.509C154.433 222.231 154.457 221.793 154.464 221.216C154.484 219.62 154.247 217.813 153.24 216.523Z" fill="#C4C4C4"/>
<path d="M161.351 216.462C161.766 217.562 161.824 218.761 161.878 219.935C161.908 220.615 161.928 221.341 161.563 221.915C161.198 222.489 160.485 222.791 159.803 222.934C158.394 223.226 156.762 222.951 155.853 221.827C155.157 220.968 155.011 219.789 155.14 218.676C155.248 217.762 155.478 216.693 154.825 216.044C154.656 215.871 154.437 215.749 154.281 215.562C153.943 215.148 153.998 214.523 154.18 214.014C154.418 213.526 154.596 213.012 154.711 212.482C154.738 212.231 159.286 212.659 159.705 212.866C160.276 213.148 160.188 213.62 160.36 214.19C160.6 214.985 161.06 215.701 161.351 216.462Z" fill="#C4C4C4"/>
<path d="M162.184 167.681C163.076 168.261 163.421 169.402 163.56 170.462C163.941 173.365 163.272 176.299 163.222 179.229C163.174 183.334 164.357 187.514 163.347 191.491C162.742 193.868 163.256 196.584 162.688 198.985C162.519 199.698 162.208 200.37 162.046 201.083C161.708 202.628 162.063 204.245 162.539 205.756C162.691 206.163 162.788 206.589 162.826 207.022C162.803 207.689 162.635 208.343 162.333 208.937L160.306 213.756C160.079 214.295 159.187 214.384 158.616 214.455C157.541 214.584 156.342 214.676 155.487 214.007C154.632 213.338 154.426 212.217 154.294 211.171C154.041 209.164 153.928 207.141 153.956 205.117C153.993 204.589 153.947 204.058 153.818 203.545C153.632 202.964 153.223 202.462 153.111 201.847C152.969 201.053 153.372 200.272 153.52 199.47C153.622 198.738 153.611 197.995 153.486 197.267C153.355 196.18 153.203 195.093 153.03 194.014C152.787 192.503 153.135 191.012 153.368 189.497C153.588 188.075 153.307 186.625 153.03 185.212C153.054 186.359 152.912 187.503 152.608 188.608C152.429 189.148 152.172 189.664 152.017 190.214C151.324 192.683 152.8 195.273 152.591 197.83C152.493 199.025 152.027 200.207 152.158 201.385C152.25 202.248 152.648 203.039 152.922 203.861C153.196 204.683 153.338 205.623 152.922 206.391C151.824 208.475 152.645 211.311 153.628 213.45C153.828 213.829 154.002 214.222 154.149 214.625C154.439 215.589 154.196 216.625 154.274 217.63C153.991 217.676 153.701 217.658 153.426 217.575C153.152 217.492 152.9 217.347 152.689 217.151C152.54 216.995 152.419 216.812 152.273 216.649C151.867 216.26 151.387 215.958 150.861 215.762C150.552 215.589 150.2 215.507 149.847 215.528C149.476 215.632 149.142 215.841 148.884 216.129C148.55 216.424 148.195 216.696 147.823 216.941C147.664 217.063 147.479 217.146 147.282 217.182C147.183 217.197 147.082 217.181 146.993 217.135C146.904 217.089 146.831 217.017 146.786 216.927C146.765 216.87 146.752 216.811 146.748 216.75C146.623 215.725 146.556 214.693 146.549 213.66C146.549 211.885 144.434 210.662 144.167 208.907C143.954 207.491 144.349 206.048 144.218 204.621C144.153 203.888 143.951 203.168 143.964 202.435C143.964 201.959 144.072 201.494 144.109 201.022C144.14 200.498 144.132 199.973 144.086 199.45L143.981 197.81C143.88 196.19 143.768 194.537 143.133 193.056C142.379 191.327 141.933 189.479 141.815 187.596C141.747 186.407 141.791 185.219 141.656 184.027C141.534 182.951 141.264 181.881 141.342 180.801C141.406 179.966 141.68 179.158 141.744 178.323C141.876 176.716 141.268 175.155 140.791 173.616C140.315 172.078 139.963 170.374 140.588 168.89C140.678 168.646 140.826 168.429 141.021 168.258C141.261 168.099 141.533 167.996 141.818 167.959C147.616 166.735 153.559 166.355 159.464 166.829C160.427 166.883 161.361 167.176 162.184 167.681Z" fill="#3F3D56"/>
<path d="M143.001 131.616C145.991 131.616 148.415 129.181 148.415 126.177C148.415 123.172 145.991 120.737 143.001 120.737C140.012 120.737 137.588 123.172 137.588 126.177C137.588 129.181 140.012 131.616 143.001 131.616Z" fill="#BE6F72"/>
<path d="M141.954 132.971C142.031 133.282 142.031 133.608 141.954 133.919C141.868 134.136 141.749 134.338 141.599 134.516C141.075 135.195 140.495 135.829 139.865 136.411C140.186 137.131 140.763 137.704 141.484 138.017C142.199 138.323 142.949 138.538 143.717 138.659C144.101 138.76 144.5 138.788 144.893 138.74C145.256 138.649 145.599 138.492 145.907 138.278L148.915 136.469C149.368 136.222 149.789 135.917 150.165 135.562C150.716 134.992 151.029 134.231 151.037 133.436C151.051 133.294 151.012 133.151 150.928 133.036C150.813 132.935 150.669 132.874 150.516 132.862C149.459 132.628 148.624 131.766 148.151 130.788C147.723 129.785 147.446 128.724 147.33 127.64L144.123 129.338C143.646 129.593 143.173 129.847 142.68 130.068C142.366 130.211 141.731 130.329 141.507 130.618C141.082 131.151 141.842 132.329 141.954 132.971Z" fill="#BE6F72"/>
<path d="M139.886 135.423C139.43 135.799 139.073 136.283 138.849 136.832C138.64 137.511 138.849 138.228 139.038 138.9C139.925 141.765 140.603 144.692 141.066 147.657C141.35 149.694 141.454 151.762 141.593 153.823C141.877 158.027 142.289 164.73 142.84 168.907C144.867 168.998 146.844 168.404 148.855 168.187C152.612 167.786 156.481 168.703 160.161 167.847C159.269 164.306 158.377 158.258 157.485 154.72C157.09 153.326 156.817 151.9 156.667 150.458C156.589 149.423 156.637 148.384 156.65 147.341C156.681 145.304 156.569 143.267 156.458 141.229C156.329 138.852 156.201 136.475 155.64 134.149C155.601 133.853 155.463 133.579 155.248 133.372C154.91 133.124 154.471 133.212 154.069 133.267C152.837 133.424 151.591 133.127 150.561 132.431C150.115 132.126 149.517 131.752 149.101 132.092C148.924 132.297 148.807 132.547 148.763 132.815C148.579 133.295 148.296 133.731 147.931 134.092C147.566 134.453 147.129 134.732 146.648 134.91C145.685 135.26 144.677 135.469 143.654 135.528C143.341 135.596 143.015 135.559 142.725 135.423C142.245 135.127 142.211 134.065 141.606 133.993C141.076 133.932 140.245 135.08 139.886 135.423Z" fill="#3F3D56"/>
<path d="M147.88 143.715C146.634 142.516 146.086 140.778 145.177 139.301C144.558 138.307 143.767 137.433 142.842 136.72C142.377 136.411 141.95 136.048 141.572 135.637C141.251 135.239 141.007 134.71 140.521 134.557C140.32 134.513 140.111 134.519 139.913 134.574C139.714 134.629 139.532 134.731 139.382 134.873C139.084 135.158 138.802 135.459 138.537 135.776C137.104 137.267 134.587 137.474 133.452 139.199C133.145 139.564 132.937 140.003 132.847 140.472C132.52 142.983 133.166 145.523 134.651 147.569C134.939 148.043 135.38 148.403 135.901 148.587C135.831 149.221 135.914 149.861 136.145 150.455C136.77 152.604 137.539 154.708 138.446 156.754C138.229 157.554 138.078 158.37 137.993 159.195C137.757 161.27 137.976 163.375 137.753 165.453C137.571 167.151 137.077 168.805 137.06 170.506C137.06 170.778 137.084 171.1 137.317 171.239C137.441 171.303 137.58 171.333 137.719 171.324L141.876 171.45C144.288 171.521 146.725 171.593 149.1 171.144C149.417 171.097 149.723 171 150.009 170.856C150.813 170.404 151.08 169.385 151.209 168.479C151.377 167.303 151.443 166.114 151.408 164.927C151.912 166.526 152.51 168.18 154.03 168.873C154.835 169.239 155.754 169.212 156.636 169.188C158.537 169.103 160.431 168.907 162.309 168.601C162.425 168.615 162.543 168.602 162.652 168.563C162.762 168.524 162.861 168.459 162.942 168.374C163.022 168.289 163.082 168.187 163.116 168.075C163.15 167.962 163.157 167.844 163.137 167.728L163.157 165.874C163.198 162.109 162.269 158.509 161.907 154.761C161.792 153.579 161.802 152.384 161.515 151.226C161.397 150.74 161.225 150.265 161.12 149.776C161.03 149.297 160.973 148.813 160.951 148.326L160.687 144.591C160.562 142.862 160.383 141.195 160.251 139.47C160.179 137.791 159.937 136.123 159.528 134.492C159.234 133.474 158.623 132.319 157.565 132.194C157.001 132.129 156.453 132.377 155.916 132.55C154.595 132.968 153.178 132.962 151.861 132.533C151.454 132.372 151.03 132.258 150.597 132.194C150.379 132.164 150.157 132.193 149.954 132.277C149.751 132.362 149.574 132.5 149.442 132.676C149.31 132.941 149.249 133.236 149.262 133.531C149.104 136.924 148.81 140.418 147.88 143.715Z" fill="#C4C4C4"/>
<path d="M142.443 143.817C140.885 142.166 139.287 140.486 137.28 139.436C136.489 139.022 135.59 138.71 134.715 138.866C133.84 139.022 133.025 139.786 133.066 140.679C133.093 141.233 133.427 141.722 133.532 142.265C133.654 142.876 133.478 143.528 133.667 144.119C133.821 144.508 134.051 144.863 134.343 145.161L136.736 148.01C137.749 149.199 138.763 150.404 140.067 151.226C141.372 152.048 143.061 152.431 144.494 151.847C145.513 151.371 146.361 150.589 146.92 149.609C147.515 148.659 147.934 147.62 148.492 146.638C149.359 145.07 150.505 143.675 151.871 142.52C151.168 142.336 150.286 142.078 149.843 141.501C149.717 141.317 149.61 141.122 149.522 140.917L148.975 139.728C148.789 139.719 148.602 139.748 148.428 139.814C148.254 139.88 148.095 139.981 147.961 140.112C147.726 140.385 147.475 140.642 147.208 140.883C146.731 141.243 146.086 141.341 145.653 141.752C145.486 141.928 145.334 142.119 145.2 142.323C144.873 142.755 144.458 143.111 143.982 143.369C143.507 143.627 142.982 143.779 142.443 143.817Z" fill="#3F3D56"/>
<path d="M151.997 136.716C153.17 134.567 153.115 131.99 153.45 129.562C153.486 128.919 153.711 128.301 154.095 127.786C154.771 127.019 155.964 127.008 156.985 127.107C157.285 127.141 157.66 127.284 157.644 127.586C157.62 127.694 157.567 127.794 157.491 127.874C156.502 129.157 155.921 130.71 155.822 132.329C156.353 132.699 157.174 131.939 157.684 132.329C158.022 132.615 157.867 133.178 157.664 133.586C157.193 134.53 156.707 135.467 156.207 136.397C155.808 137.217 155.287 137.972 154.663 138.635C154.234 139.049 153.73 139.375 153.295 139.783C152.281 140.737 151.669 142.085 150.622 143.015C150.533 143.112 150.413 143.173 150.284 143.188C150.15 143.179 150.025 143.122 149.929 143.029C149.406 142.601 148.972 142.074 148.652 141.477C148.253 140.737 148.314 140.52 148.942 139.997C150.118 139.063 151.264 138.061 151.997 136.716Z" fill="#BE6F72"/>
<path d="M140.484 142.357C140.686 142.482 140.936 142.625 141.159 142.52C141.251 142.464 141.328 142.389 141.386 142.299C141.772 141.781 142.094 141.218 142.345 140.621C142.389 140.537 142.413 140.444 142.416 140.35C142.416 140.132 142.224 139.973 142.045 139.847C141.085 139.233 140.053 138.74 138.973 138.38C138.081 138.041 137.148 137.745 136.202 137.83C135.847 137.854 135.5 137.95 135.182 138.112C134.864 138.275 134.583 138.5 134.354 138.774C133.678 139.647 134.81 139.912 135.52 140.228C137.162 140.978 138.939 141.413 140.484 142.357Z" fill="#C4C4C4"/>
<path opacity="0.1" d="M139.419 148.129C139.408 148.207 139.415 148.286 139.44 148.36C139.464 148.434 139.506 148.502 139.561 148.557C139.659 148.075 139.531 147.565 139.632 147.08C139.781 146.35 140.487 145.8 140.548 145.066C139.254 144.812 139.43 147.341 139.419 148.129Z" fill="black"/>
<path opacity="0.2" d="M199.001 121.576V124.92L185.261 125.759L184.846 122.411L199.001 121.576Z" fill="black"/>
<path d="M138.128 126.985C138.986 126.282 138.489 124.808 139.07 123.864C139.408 123.348 139.979 123.076 140.54 122.846C141.217 122.527 141.943 122.325 142.686 122.248C143.058 122.212 143.434 122.261 143.785 122.391C144.136 122.521 144.453 122.728 144.714 122.998C144.933 123.25 145.082 123.555 145.288 123.817C145.543 124.122 145.876 124.352 146.251 124.482C146.626 124.612 147.029 124.638 147.417 124.557C147.866 124.455 148.333 124.112 148.302 123.65C148.251 123.369 148.109 123.114 147.897 122.924L146.93 121.847C145.832 120.625 144.612 119.328 143 119.022C141.878 118.808 140.73 119.11 139.648 119.474C139.212 119.62 138.722 119.837 138.601 120.282C138.52 120.587 138.641 120.92 138.57 121.229C138.432 121.844 137.648 122.051 137.283 122.567C136.918 123.083 137.029 123.694 136.925 124.265C136.82 124.835 136.516 125.392 136.479 125.983C136.455 126.34 136.634 127.002 137.033 127.131C137.432 127.26 137.881 126.56 138.128 126.985Z" fill="#3F3D56"/>
<path d="M147.975 123.161C147.69 121.667 147.076 120.256 146.177 119.032C145.378 117.888 144.267 117.002 142.977 116.479C142.332 116.226 141.639 116.123 140.949 116.177C140.259 116.232 139.59 116.443 138.993 116.795C138.107 117.43 137.417 118.305 137.003 119.317C136.128 121.212 135.803 123.528 136.82 125.348C137.226 124.852 137.922 125.076 138.537 124.896C139.307 124.676 139.96 124.16 140.693 123.837C142.906 122.856 145.609 123.65 147.975 123.161Z" fill="#FED253"/>
<path opacity="0.1" d="M137.337 123.056C137.259 122.445 137.208 121.735 137.641 121.3C137.662 121.274 137.69 121.253 137.721 121.238C137.752 121.224 137.786 121.218 137.82 121.219C137.85 121.229 137.878 121.245 137.902 121.266C137.926 121.287 137.945 121.312 137.959 121.341C138.208 121.737 138.421 122.155 138.594 122.591C138.342 122.532 138.079 122.551 137.838 122.645C137.597 122.739 137.389 122.904 137.242 123.117" fill="black"/>
<path opacity="0.1" d="M145.235 121.331L145.113 120.119C145.094 120.019 145.102 119.916 145.137 119.82C145.188 119.74 145.267 119.682 145.358 119.657C145.449 119.632 145.546 119.642 145.63 119.684C145.797 119.777 145.934 119.914 146.026 120.081C146.307 120.515 146.54 120.979 146.722 121.463C146.178 121.358 145.618 121.365 145.076 121.484" fill="black"/>
<path opacity="0.1" d="M148.26 170.53V173.301L145.931 173.457H133.686V170.53H148.26Z" fill="black"/>
<path d="M148.259 170.53V173.457H133.685L94.9668 124.72V122.418H103.083L148.259 170.53Z" fill="#F1C0C0"/>
<path opacity="0.1" d="M148.259 170.53V173.457H133.685L94.9668 124.72V122.418H103.083L148.259 170.53Z" fill="black"/>
<path opacity="0.1" d="M148.259 170.53V173.457H133.685L94.9668 124.72V122.418L133.894 170.53H148.259Z" fill="black"/>
<path d="M100.043 219.379C100.068 219.516 100.065 219.658 100.034 219.794C100.002 219.931 99.9434 220.059 99.8603 220.172C99.7772 220.284 99.6719 220.378 99.551 220.448C99.4301 220.518 99.2962 220.562 99.1576 220.577C98.2182 220.896 97.2213 221.212 96.5557 221.935C95.89 222.659 95.7582 224 96.5557 224.587C96.9633 224.834 97.4313 224.963 97.9073 224.958C99.438 225.063 101.033 225.042 102.422 224.391C103.415 223.929 104.351 223.141 105.443 223.212C106.007 223.246 106.609 223.511 107.112 223.253C107.616 222.995 107.757 222.275 107.761 221.674C107.774 220.419 107.585 219.171 107.203 217.976C107.153 217.813 105.003 217.688 104.747 217.637L102.141 217.297C101.648 217.233 100.584 216.859 100.195 217.273C99.8064 217.688 100.043 218.886 100.043 219.379Z" fill="#C4C4C4"/>
<path d="M115.59 210.903C115.701 211.515 115.88 212.112 116.124 212.682C116.486 213.606 116.949 214.587 117.834 215.036C118.638 215.44 119.625 215.294 120.443 214.91C120.784 214.768 121.083 214.54 121.311 214.248C121.575 213.786 121.693 213.254 121.649 212.723C121.649 211.409 121.571 210.051 120.973 208.883C120.46 207.864 119.564 206.988 119.551 205.861L116.472 206.458C116.308 206.474 116.151 206.537 116.019 206.638C115.922 206.742 115.854 206.87 115.824 207.008C115.495 208.279 115.416 209.602 115.59 210.903Z" fill="#C4C4C4"/>
<path d="M78.8292 178.645C78.7008 179.739 78.7548 180.91 79.3225 181.854C79.8902 182.798 81.0864 183.423 82.1204 183.046C82.1734 183.032 82.2231 183.008 82.2667 182.975C82.3102 182.942 82.3466 182.9 82.3739 182.852C82.4014 182.737 82.3857 182.617 82.3299 182.513C81.8735 181.289 81.911 179.934 82.4347 178.737C82.5023 178.581 82.6476 178.397 82.8064 178.458C82.8728 178.492 82.9263 178.547 82.9585 178.615C83.122 178.899 83.2039 179.223 83.195 179.552C83.1473 179.849 83.1382 180.152 83.168 180.452C83.2322 180.744 83.543 181.019 83.8134 180.893C83.8915 180.845 83.9591 180.781 84.012 180.706C84.0648 180.63 84.1019 180.545 84.1209 180.455C84.8744 178.265 84.5331 175.871 84.1885 173.579C84.1913 173.526 84.1827 173.474 84.1631 173.425C84.1435 173.376 84.1135 173.332 84.0751 173.296C84.0368 173.26 83.991 173.233 83.9411 173.217C83.8912 173.201 83.8384 173.196 83.7863 173.202C82.1914 173.042 81.3196 172.659 80.4072 174.149C79.6233 175.406 78.8292 177.134 78.8292 178.645Z" fill="#C4C4C4"/>
<path d="M97.4741 173.073C97.001 175.049 96.5246 177.049 96.4941 179.08C96.5025 180.345 96.5973 181.607 96.778 182.859L97.1328 185.8C97.2544 186.791 97.3727 187.779 97.5451 188.761C97.655 189.266 97.715 189.781 97.7241 190.299C97.691 190.809 97.6107 191.315 97.4842 191.81C97.2717 192.85 97.153 193.907 97.1294 194.968C97.0922 196.666 97.3018 198.363 97.4335 200.061C97.6966 203.444 97.657 206.845 97.3153 210.221C97.1788 211.132 97.3757 212.062 97.8694 212.839C98.0698 213.084 98.2348 213.356 98.3594 213.647C98.6129 214.424 98.0215 215.202 97.8694 216C97.7722 216.622 97.9247 217.258 98.2934 217.767C98.6622 218.277 99.217 218.618 99.8361 218.716C102.539 219.039 105.317 218.893 107.753 220.136C108.01 219.382 107.449 218.526 107.706 217.759C107.868 217.284 108.314 216.975 108.618 216.574C109.027 215.963 109.231 215.238 109.2 214.503C109.212 213.543 109.042 212.59 108.7 211.694C108.412 210.947 108 210.211 108.024 209.409C108.024 209.015 108.162 208.601 108.003 208.238C107.895 208.029 107.747 207.843 107.568 207.691C106.558 206.579 105.937 205.166 105.8 203.667C105.668 202.18 105.716 200.682 105.942 199.205C106.108 197.8 106.331 196.316 107.219 195.219C106.807 191.893 107.05 188.519 107.932 185.287C108.02 184.988 108.159 184.642 108.463 184.57C108.584 184.558 108.706 184.575 108.819 184.62C108.932 184.665 109.032 184.736 109.112 184.829C109.642 185.328 109.896 186.051 110.126 186.744C110.379 187.494 110.636 188.295 110.443 189.063C110.362 189.402 110.2 189.701 110.105 190.027C109.9 190.682 109.936 191.39 110.207 192.02C110.339 192.251 110.422 192.506 110.45 192.771C110.419 192.998 110.35 193.218 110.247 193.423C110.122 193.825 110.082 194.248 110.13 194.667C110.179 195.085 110.314 195.488 110.528 195.851C110.958 196.572 111.49 197.227 112.106 197.796C111.811 199.1 111.888 200.46 112.325 201.722C112.357 201.778 112.377 201.841 112.385 201.906C112.392 201.97 112.387 202.036 112.369 202.098C112.308 202.228 112.153 202.275 112.031 202.367C111.693 202.645 111.903 203.171 112.129 203.535C112.75 204.532 113.435 205.487 114.18 206.394C114.856 207.205 114.795 208.771 115.802 209.063C116.226 209.155 116.663 209.155 117.087 209.063C118.08 208.91 119.188 208.621 119.675 207.739C119.874 207.375 119.955 206.934 120.266 206.662C120.577 206.391 120.979 206.343 121.152 206.017C121.324 205.691 121.131 205.263 121.189 204.886C121.246 204.509 121.574 204.207 121.679 203.81C121.929 202.893 120.864 202.139 120.719 201.202C120.51 199.844 122.213 198.825 122.142 197.467C121.993 194.516 121.898 191.552 121.746 188.601C121.556 185.958 121.528 183.305 121.665 180.659C121.784 179.012 122.003 177.287 121.402 175.756C120.537 173.596 118.151 172.384 115.843 172.153C113.535 171.922 111.234 172.472 108.946 172.832C105.149 173.42 101.292 173.501 97.4741 173.073Z" fill="#3F3D56"/>
<path d="M104.333 140.618C107.323 140.618 109.747 138.183 109.747 135.178C109.747 132.174 107.323 129.739 104.333 129.739C101.344 129.739 98.9199 132.174 98.9199 135.178C98.9199 138.183 101.344 140.618 104.333 140.618Z" fill="#FBBEBE"/>
<path d="M102.131 141.633C101.947 142.064 101.638 142.428 101.244 142.678C100.85 142.928 100.39 143.053 99.9243 143.036C99.7283 143.851 100.198 144.672 100.735 145.314C101.851 146.619 103.293 147.601 104.912 148.159C106.531 148.717 108.269 148.831 109.947 148.489C110.6 148.372 111.219 148.112 111.761 147.728C112.493 147.115 112.984 146.261 113.147 145.317C113.302 144.381 113.347 143.429 113.279 142.482C113.298 142.295 113.244 142.108 113.13 141.959C112.995 141.854 112.828 141.799 112.657 141.803C111.515 141.701 110.322 141.657 109.318 141.093C108.315 140.53 107.602 139.256 108.085 138.211C108.007 138.374 106.034 138.452 105.774 138.486C104.959 138.601 104.145 138.73 103.334 138.879C102.944 138.901 102.559 138.974 102.188 139.097C101.698 139.351 101.881 139.226 101.996 139.688C102.168 140.394 102.421 140.9 102.131 141.633Z" fill="#FBBEBE"/>
<path d="M106.251 144.941C105.522 144.949 104.794 144.868 104.085 144.7C103.368 144.531 102.737 144.108 102.307 143.508C102.057 143.127 101.895 142.649 101.496 142.435C100.844 142.095 100.101 142.669 99.5803 143.195C99.1065 143.714 98.5574 144.158 97.9516 144.513C97.2284 144.896 96.3836 145.032 95.7011 145.484C95.1678 145.889 94.7102 146.385 94.3494 146.951L89.5612 153.504C87.6385 156.139 85.9658 158.968 84.2526 161.749C82.7692 164.156 81.992 166.927 80.8735 169.525C80.7849 169.684 80.7482 169.867 80.7687 170.048C80.8093 170.224 81.0221 170.367 81.1708 170.265C80.6673 170.767 81.11 171.623 80.9917 172.329C80.8573 172.824 80.5769 173.265 80.1875 173.596C80.9313 173.498 81.6863 173.534 82.4177 173.701C83.1736 173.916 83.8869 174.261 84.5263 174.72C84.9352 174.655 84.898 173.925 85.2021 173.654C85.3846 173.494 85.6549 173.514 85.8948 173.467C86.7971 173.29 87.1553 172.2 87.848 171.586C88.4258 171.073 89.2436 170.907 89.8552 170.424C90.8486 169.64 91.0615 168.244 91.5819 167.087C92.0246 166.105 92.7207 165.25 93.1093 164.244C93.3627 163.593 93.4844 162.886 93.8459 162.285C94.4238 161.314 95.5118 160.798 96.5492 160.333C97.2048 160.037 97.9009 159.732 98.6071 159.779C98.5699 161.358 98.3706 162.913 98.7119 164.455C98.8301 164.998 98.9957 165.528 99.1376 166.068C99.7831 168.499 99.9351 171.032 99.9655 173.538C101.518 173.181 103.104 172.99 104.696 172.968C105.95 172.93 107.2 173.093 108.454 173.07C109.941 173.042 111.411 172.754 112.897 172.652C114.384 172.55 115.939 172.652 117.253 173.331C117.146 171.179 117.206 169.022 117.432 166.879L117.79 163.504C117.871 162.524 118.021 161.55 118.24 160.591C118.436 159.817 118.72 159.07 118.936 158.299C119.696 155.582 119.558 152.683 119.412 149.854C119.338 148.401 118.78 146.971 118.125 145.677C117.888 145.197 117.617 144.734 117.314 144.292C116.522 143.195 115.466 142.318 114.245 141.742C113.025 141.166 111.678 140.91 110.333 140.998C110.161 141.004 109.991 141.04 109.833 141.107C109.547 141.29 109.325 141.557 109.194 141.871C108.495 143.134 107.48 144.192 106.251 144.941Z" fill="#3F3D56"/>
<path d="M99.5731 136.981C99.7251 136.642 100.134 136.516 100.384 136.244C100.864 135.728 100.648 134.903 100.722 134.207C100.844 133.188 101.685 132.336 102.648 131.973C103.63 131.656 104.675 131.59 105.689 131.779C106.177 131.815 106.649 131.973 107.061 132.238C107.237 132.367 107.399 132.533 107.565 132.652C107.866 132.835 108.228 132.893 108.571 132.812C108.915 132.732 109.213 132.519 109.403 132.221C108.207 130.774 106.882 129.246 105.064 128.801C104.44 128.673 103.805 128.613 103.168 128.621C102.327 128.604 101.459 128.591 100.681 128.913C99.6237 129.351 98.8803 130.36 98.4985 131.447C98.1646 132.548 97.986 133.691 97.968 134.842C97.8987 135.61 97.8987 136.383 97.968 137.151C98.0986 138.2 98.4864 139.2 99.0966 140.061C99.1791 140.195 99.2958 140.304 99.4345 140.377C100.975 141.056 99.448 137.263 99.5731 136.981Z" fill="#3F3D56"/>
<path d="M109.226 131.382C109.04 129.783 107.905 128.462 106.699 127.399C105.726 126.477 104.568 125.777 103.303 125.345C102.029 124.968 100.562 125.049 99.4707 125.813C98.5921 126.428 98.0346 127.406 97.6054 128.39C97.0417 129.553 96.7625 130.833 96.7911 132.126C96.8755 133.409 97.4973 134.71 98.6056 135.358C99.0044 134.767 99.6971 134.462 100.363 134.221C103.264 133.115 106.223 132.167 109.226 131.382Z" fill="#FED253"/>
<path opacity="0.1" d="M98.9788 130.716C99.087 130.716 99.1579 130.829 99.212 130.92C99.4871 131.351 99.7235 131.806 99.9182 132.278C99.5229 132.363 98.8437 132.458 98.6477 132.109C98.5429 131.932 98.668 130.699 98.9788 130.716Z" fill="black"/>
<path opacity="0.1" d="M106.678 129.949C106.597 130.027 106.502 129.868 106.502 129.752V128.435C106.5 128.398 106.508 128.361 106.526 128.329C106.54 128.313 106.557 128.3 106.576 128.291C106.595 128.281 106.616 128.276 106.637 128.275C106.911 128.244 107.138 128.479 107.313 128.703C107.58 129.066 107.812 129.454 108.006 129.861L106.577 129.817" fill="black"/>
<path d="M124.517 151.766C124.828 151.469 125.16 151.196 125.51 150.947C126.446 150.319 127.578 150.071 128.629 149.671C129.68 149.27 130.748 148.621 131.157 147.569C131.361 146.911 131.428 146.217 131.353 145.531C131.362 145.244 131.312 144.959 131.204 144.693C131.075 144.458 130.892 144.257 130.67 144.109C129.244 143.049 127.331 142.964 125.561 143.073C121.657 143.316 117.831 144.276 114.271 145.905C114.083 145.967 113.918 146.086 113.798 146.244C113.729 146.392 113.697 146.554 113.707 146.716C113.644 147.718 113.774 148.722 114.089 149.674C114.555 150.883 115.515 151.857 115.917 153.09C116.099 153.643 116.16 154.231 116.319 154.788C116.449 155.363 116.788 155.869 117.268 156.207C118.603 157.008 119.864 155.932 120.79 155.097L124.517 151.766Z" fill="#3F3D56"/>
<path d="M107.037 156.469L105.323 152.713C105.072 152.193 104.856 151.656 104.675 151.107C104.479 150.452 104.384 149.773 104.202 149.114C103.6 146.92 102.083 145.093 101.343 142.944C101.296 142.75 101.201 142.571 101.066 142.424C100.958 142.348 100.834 142.296 100.704 142.272C100.574 142.249 100.44 142.254 100.312 142.289C99.2782 142.469 98.4706 143.26 97.5245 143.708C97.0852 143.912 96.6121 144.048 96.1728 144.282C95.9533 144.386 95.7587 144.537 95.6024 144.724C95.4461 144.911 95.3318 145.13 95.2672 145.365C95.1625 145.885 95.4193 146.384 95.6355 146.89C96.5547 148.975 96.7642 151.304 96.8047 153.586C96.8351 155.121 96.7574 156.767 95.8552 158C94.1217 160.377 95.2301 163.868 95.8788 166.744C95.9566 167.083 96.0478 167.45 96.1019 167.81C96.159 168.26 96.185 168.714 96.1796 169.168C96.1796 170.693 96.0951 172.265 95.4598 173.647C96.087 173.982 96.7783 174.179 97.4873 174.224C99.4495 174.475 101.419 174.652 103.397 174.754C104.017 174.812 104.642 174.78 105.253 174.659C105.978 174.462 106.617 174.028 107.069 173.425C107.521 172.823 107.761 172.086 107.75 171.331C107.858 172.272 108.057 173.294 108.736 173.946C109.416 174.598 110.406 174.696 111.328 174.747C113.932 174.886 116.542 174.812 119.134 174.526C119.299 174.519 119.462 174.481 119.614 174.414C120.114 174.163 120.141 173.47 120.1 172.913C120.026 171.871 119.948 170.829 119.823 169.793C119.717 169.133 119.663 168.465 119.661 167.796C119.713 167.108 119.826 166.426 119.999 165.759C120.452 163.64 120.81 161.477 120.658 159.307C120.598 158.779 120.576 158.246 120.594 157.715C120.682 156.516 121.31 155.375 121.192 154.183C120.854 150.679 120.58 147.083 119.607 143.701C119.431 143.097 119.208 142.448 118.685 142.102C118.009 141.647 117.059 141.885 116.285 141.596C115.922 141.426 115.577 141.22 115.255 140.981C114.555 140.541 113.752 140.293 112.927 140.261C112.305 140.238 111.612 140.377 111.237 140.879C111.063 141.162 110.948 141.478 110.899 141.806C110.409 143.878 109.835 145.925 109.26 147.973L108.709 149.935L107.233 155.205C107.087 155.766 107.185 155.939 107.037 156.469Z" fill="#C4C4C4"/>
<path d="M115.677 135.908L148.364 170.424V173.351H133.789L109.227 141.137" fill="#F1C0C0"/>
<path opacity="0.1" d="M115.677 135.908L148.364 170.424V173.351H133.789L109.227 141.137" fill="black"/>
<path opacity="0.1" d="M109.747 140.683L109.852 140.72L133.999 170.424H148.364V173.351H133.789L109.227 141.138L109.747 140.683Z" fill="black"/>
<path d="M113.508 141.409C112.326 141.929 111.011 142.594 110.656 143.844C110.586 144.063 110.571 144.296 110.613 144.523C110.699 144.789 110.864 145.023 111.085 145.194C111.307 145.364 111.574 145.463 111.853 145.477C112.409 145.491 112.962 145.389 113.478 145.178L120.456 142.862C120.645 142.801 120.861 142.71 120.909 142.523C120.921 142.405 120.897 142.287 120.841 142.183C120.625 141.654 120.412 140.57 119.959 140.2C119.587 139.902 118.851 140.007 118.401 140.014C116.671 140.027 115.046 140.73 113.508 141.409Z" fill="#C4C4C4"/>
<path d="M119.728 143.138C120.904 143.134 122.073 143.316 123.192 143.677C124.316 144.044 125.312 144.728 126.061 145.647C126.279 145.904 126.434 146.208 126.514 146.537C126.581 146.876 127.683 147.08 127.44 147.311C128.18 147.192 128.004 147.542 128.754 147.535C129.504 147.528 130.315 147.334 130.765 146.733C131.077 146.24 131.216 145.655 131.16 145.073C131.17 144.67 131.094 144.269 130.937 143.898C130.599 143.185 129.822 142.801 129.106 142.472L123.07 139.698C122.72 139.511 122.345 139.377 121.955 139.301C121.628 139.269 121.298 139.277 120.972 139.324L118.238 139.64C118.836 140.029 119.323 140.567 119.651 141.203C119.978 141.838 120.135 142.548 120.107 143.263" fill="#3F3D56"/>
</g>
<defs>
<clipPath id="clip0_541_2752">
<rect width="398" height="246" fill="white"/>
</clipPath>
</defs>
</svg>
