<svg width="467" height="456" viewBox="0 0 467 456" fill="none" xmlns="http://www.w3.org/2000/svg">
<g clip-path="url(#clip0_1652_3100)">
<path d="M296.471 102.553H170.635C167.767 102.557 165.018 103.698 162.99 105.726C160.962 107.754 159.822 110.504 159.818 113.373V393.137L158.376 393.577L127.506 403.034C126.043 403.48 124.463 403.327 123.113 402.609C121.762 401.891 120.752 400.666 120.303 399.204L28.48 99.1702C28.0331 97.7067 28.1854 96.1256 28.9034 94.7744C29.6214 93.4232 30.8463 92.4124 32.309 91.9642L79.879 77.3935L217.786 35.1674L265.356 20.5968C266.08 20.3739 266.841 20.296 267.595 20.3676C268.349 20.4391 269.081 20.6587 269.75 21.0138C270.42 21.3689 271.012 21.8525 271.494 22.437C271.976 23.0214 272.338 23.6952 272.56 24.4198L296.031 101.111L296.471 102.553Z" fill="#F2F2F2" fill-opacity="0.5"/>
<path d="M323.93 101.11L295.642 8.68024C295.171 7.14018 294.402 5.70799 293.378 4.46549C292.353 3.223 291.095 2.19457 289.673 1.43895C288.251 0.68334 286.695 0.21535 285.092 0.0617459C283.49 -0.0918584 281.872 0.0719323 280.333 0.543742L213.453 21.022L75.5528 63.2554L8.67228 83.7409C5.56536 84.6952 2.9639 86.8437 1.43891 89.7147C-0.0860845 92.5858 -0.410014 95.9448 0.538235 99.0545L97.2212 414.942C97.9915 417.453 99.5458 419.65 101.656 421.212C103.766 422.773 106.321 423.617 108.946 423.62C110.161 423.621 111.369 423.438 112.53 423.079L158.376 409.042L159.819 408.595V407.087L158.376 407.527L112.104 421.701C109.362 422.537 106.4 422.252 103.868 420.906C101.336 419.561 99.4411 417.265 98.5986 414.524L1.92301 98.6289C1.50557 97.2706 1.36008 95.8433 1.49487 94.4286C1.62966 93.014 2.04207 91.6399 2.70851 90.3849C3.37495 89.1299 4.28233 88.0188 5.37866 87.1152C6.47499 86.2115 7.73875 85.533 9.09758 85.1186L75.9781 64.6331L213.878 22.407L280.759 1.92148C281.79 1.60684 282.861 1.44641 283.939 1.4454C286.251 1.4506 288.501 2.19641 290.36 3.57361C292.218 4.9508 293.586 6.887 294.265 9.09862L322.423 101.11L322.87 102.553H324.37L323.93 101.11Z" fill="#3F3D56"/>
<path d="M88.4632 92.2001C87.0734 92.1991 85.7205 91.7526 84.6029 90.9261C83.4854 90.0996 82.6621 88.9365 82.2537 87.6076L72.9659 57.2604C72.7163 56.4452 72.6297 55.5889 72.711 54.7402C72.7923 53.8915 73.04 53.0672 73.4398 52.3143C73.8396 51.5614 74.3839 50.8947 75.0413 50.3522C75.6988 49.8097 76.4566 49.4021 77.2716 49.1526L204.138 10.2995C205.784 9.79716 207.562 9.9685 209.082 10.7759C210.601 11.5834 211.739 12.961 212.244 14.6063L221.532 44.9539C222.034 46.6002 221.862 48.3785 221.055 49.8986C220.248 51.4186 218.871 52.5563 217.226 53.0621L90.3592 91.9151C89.7448 92.1037 89.1058 92.1998 88.4632 92.2001Z" fill="#FEB240"/>
<path d="M137.117 32.427C145.081 32.427 151.538 25.9681 151.538 18.0006C151.538 10.0331 145.081 3.57422 137.117 3.57422C129.152 3.57422 122.695 10.0331 122.695 18.0006C122.695 25.9681 129.152 32.427 137.117 32.427Z" fill="#FEB240"/>
<path d="M137.117 27.1357C142.16 27.1357 146.249 23.0457 146.249 18.0005C146.249 12.9552 142.16 8.86523 137.117 8.86523C132.073 8.86523 127.984 12.9552 127.984 18.0005C127.984 23.0457 132.073 27.1357 137.117 27.1357Z" fill="white"/>
<path d="M434.551 419.934H190.825C189.2 419.933 187.642 419.286 186.493 418.137C185.344 416.987 184.698 415.429 184.696 413.803V121.668C184.698 120.043 185.344 118.484 186.493 117.335C187.642 116.185 189.2 115.539 190.825 115.537H434.551C436.176 115.539 437.734 116.186 438.883 117.335C440.032 118.484 440.679 120.043 440.681 121.668V413.803C440.679 415.429 440.032 416.987 438.883 418.136C437.734 419.286 436.176 419.932 434.551 419.934Z" fill="#E6E6E6" fill-opacity="0.5"/>
<path d="M322.423 101.11H170.635C167.385 101.115 164.27 102.408 161.972 104.707C159.674 107.006 158.381 110.122 158.376 113.373V407.527L159.818 407.087V113.373C159.822 110.504 160.963 107.754 162.99 105.726C165.018 103.698 167.767 102.556 170.635 102.553H322.87L322.423 101.11ZM454.742 101.11H170.635C167.385 101.115 164.27 102.408 161.972 104.707C159.674 107.006 158.381 110.122 158.376 113.373V443.738C158.381 446.988 159.674 450.105 161.972 452.403C164.27 454.702 167.385 455.996 170.635 456H454.742C457.991 455.996 461.107 454.702 463.405 452.403C465.703 450.105 466.995 446.988 467 443.738V113.373C466.995 110.122 465.703 107.006 463.405 104.707C461.107 102.408 457.991 101.115 454.742 101.11ZM465.558 443.738C465.554 446.606 464.414 449.356 462.386 451.385C460.358 453.413 457.609 454.554 454.742 454.557H170.635C167.767 454.554 165.018 453.413 162.99 451.385C160.963 449.356 159.822 446.606 159.818 443.738V113.373C159.822 110.504 160.963 107.754 162.99 105.726C165.018 103.698 167.767 102.556 170.635 102.553H454.742C457.609 102.556 460.358 103.698 462.386 105.726C464.414 107.754 465.554 110.504 465.558 113.373V443.738Z" fill="#3F3D56"/>
<path d="M379.028 132.849H246.349C244.628 132.847 242.978 132.162 241.762 130.945C240.545 129.728 239.861 128.078 239.859 126.357V94.6188C239.861 92.8977 240.545 91.2476 241.762 90.0305C242.978 88.8135 244.628 88.1289 246.349 88.127H379.028C380.749 88.1289 382.398 88.8135 383.615 90.0305C384.831 91.2476 385.516 92.8977 385.518 94.6188V126.357C385.516 128.078 384.831 129.728 383.615 130.945C382.398 132.162 380.749 132.847 379.028 132.849Z" fill="#FEB240"/>
<path d="M312.688 90.2903C320.653 90.2903 327.11 83.8314 327.11 75.8639C327.11 67.8964 320.653 61.4375 312.688 61.4375C304.723 61.4375 298.266 67.8964 298.266 75.8639C298.266 83.8314 304.723 90.2903 312.688 90.2903Z" fill="#FEB240"/>
<path d="M312.688 84.6512C317.539 84.6512 321.472 80.7171 321.472 75.8642C321.472 71.0112 317.539 67.0771 312.688 67.0771C307.837 67.0771 303.904 71.0112 303.904 75.8642C303.904 80.7171 307.837 84.6512 312.688 84.6512Z" fill="white"/>
</g>
<defs>
<clipPath id="clip0_1652_3100">
<rect width="467" height="456" fill="white"/>
</clipPath>
</defs>
</svg>
