<svg width="415" height="276" viewBox="0 0 415 276" fill="none" xmlns="http://www.w3.org/2000/svg">
<path d="M210.236 77.5727C206.536 71.4431 202.151 64.8985 195.284 62.897C187.332 60.5791 179.163 65.1836 172.234 69.7273C151.511 83.316 131.555 98.0423 112.457 113.839L112.478 114.077C127.347 113.05 142.215 112.023 157.084 110.996C167.827 110.254 178.938 109.409 188.432 104.32C192.035 102.388 195.546 99.8081 199.628 99.6284C204.7 99.405 209.122 102.953 212.598 106.659C233.155 128.584 239.104 162.113 262.167 181.375C247.624 145.454 230.259 110.744 210.236 77.5727Z" fill="#F2F2F2"/>
<path d="M336.598 263.536C334.324 260.661 333.396 259.988 331.153 257.086C312.894 233.434 295.733 208.984 279.668 183.734C268.756 166.586 258.386 149.108 248.556 131.301C243.877 122.835 239.325 114.303 234.902 105.704C231.47 99.0373 228.114 92.3303 224.835 85.5835C223.898 83.6564 222.986 81.7205 222.08 79.7802C219.943 75.2173 217.847 70.6323 215.595 66.1314C213.03 61.0015 209.907 55.6235 205.197 52.1769C203.053 50.5441 200.489 49.5561 197.806 49.3285C193.971 49.0804 190.432 50.6663 187.106 52.3984C162.77 65.1081 139.987 81.0428 119.38 99.1747C98.7201 117.347 80.2535 137.878 64.3567 160.348C63.8704 161.044 62.7203 160.379 63.2112 159.679C65.1441 156.942 67.1154 154.234 69.1249 151.555C94.1122 118.271 124.75 89.6479 159.639 66.9952C165.508 63.1855 171.489 59.5543 177.579 56.1019C180.649 54.3609 183.731 52.6421 186.867 51.0296C189.942 49.4481 193.206 48.026 196.718 47.9729C208.669 47.7868 214.857 61.3426 219.107 70.4639C220.443 73.3346 221.795 76.1963 223.163 79.0492C228.334 89.8805 233.703 100.613 239.272 111.246C242.709 117.812 246.221 124.338 249.808 130.827C260.972 151.032 272.837 170.828 285.405 190.215C302.054 215.896 318.569 238.582 337.535 262.597C338.057 263.261 337.124 264.209 336.598 263.536Z" fill="#E4E4E4"/>
<path d="M118.201 92.481C117.506 91.7057 116.816 90.9305 116.117 90.1552C110.606 84.0507 104.693 78.017 97.1246 74.5173C93.5162 72.796 89.577 71.8814 85.5803 71.8372C81.4492 71.8505 77.411 72.9358 73.594 74.4553C71.7893 75.1774 70.0244 75.997 68.2862 76.8697C66.3002 77.8708 64.3495 78.9385 62.408 80.015C58.7632 82.0351 55.1658 84.1437 51.6157 86.341C44.5519 90.7134 37.7094 95.4195 31.088 100.459C27.6556 103.073 24.294 105.772 21.0033 108.557C17.9425 111.144 14.9437 113.801 12.0068 116.527C11.3787 117.107 10.441 116.168 11.069 115.588C11.8431 114.866 12.626 114.148 13.4089 113.439C15.6204 111.437 17.8674 109.473 20.1498 107.547C24.3117 104.03 28.5815 100.648 32.959 97.4027C39.7662 92.3525 46.8077 87.6449 54.0836 83.2799C57.7194 81.1003 61.4053 79.0123 65.1413 77.0159C66.2693 76.4134 67.4105 75.8242 68.5649 75.266C71.1842 73.9427 73.9058 72.8331 76.7033 71.9479C80.666 70.664 84.8586 70.2515 88.9951 70.7386C92.9889 71.3204 96.8368 72.6537 100.336 74.668C107.767 78.8277 113.53 85.26 119.138 91.5374C119.705 92.1753 118.771 93.1189 118.201 92.481Z" fill="#E4E4E4"/>
<path d="M270.452 155.74L288.258 149.217L297.099 145.979C299.978 144.924 302.851 143.723 305.827 142.968C308.414 142.228 311.16 142.263 313.727 143.069C316.016 143.917 318.112 145.218 319.889 146.894C321.704 148.569 323.394 150.376 324.943 152.3C326.868 154.617 328.764 156.958 330.669 159.291C338.531 168.921 346.341 178.592 354.1 188.305C361.859 198.018 369.565 207.773 377.22 217.568C384.894 227.388 392.515 237.248 400.083 247.15C401.01 248.363 401.937 249.577 402.862 250.791C403.373 251.462 404.526 250.8 404.008 250.12C396.384 240.119 388.707 230.159 380.976 220.239C373.227 210.296 365.424 200.395 357.568 190.537C349.712 180.678 341.803 170.862 333.84 161.089C331.856 158.655 329.87 156.223 327.879 153.793C326.2 151.744 324.541 149.673 322.699 147.765C319.319 144.264 315.096 141.17 310.042 141.086C307.07 141.037 304.193 141.981 301.432 142.982C298.455 144.06 295.486 145.159 292.513 146.248L274.582 152.816L270.1 154.459C269.304 154.75 269.648 156.035 270.452 155.74L270.452 155.74Z" fill="#E4E4E4"/>
<path d="M94.7816 82.1987C85.733 77.5409 74.1451 78.4532 65.8301 84.2724C81.6903 87.0129 97.377 90.6798 112.81 95.2543C106.401 91.4928 101.388 85.5994 94.7816 82.1987Z" fill="#F2F2F2"/>
<path d="M65.74 84.2563L63.998 85.6744C64.5873 85.1781 65.1998 84.7127 65.8291 84.2724C65.7994 84.2672 65.7697 84.2615 65.74 84.2563Z" fill="#F2F2F2"/>
<path d="M319.219 155.805C317.466 153.668 315.571 151.431 312.95 150.563L310.502 150.66C329.134 183.635 354.299 212.449 384.451 235.333C362.707 208.824 340.963 182.314 319.219 155.805Z" fill="#F2F2F2"/>
<path d="M167.012 138.177C168.145 142.299 170.696 145.886 174.216 148.305C175.577 149.233 177.186 150.123 177.652 151.705C177.897 152.713 177.746 153.776 177.23 154.676C176.716 155.565 176.09 156.384 175.367 157.113L175.302 157.36C171.925 155.356 168.712 152.821 166.847 149.362C164.982 145.903 164.722 141.37 167.012 138.177" fill="#F2F2F2"/>
<path d="M279.43 236.274C280.563 240.396 283.114 243.984 286.634 246.402C287.995 247.33 289.604 248.22 290.07 249.802C290.315 250.81 290.164 251.874 289.648 252.774C289.134 253.662 288.508 254.481 287.785 255.21L287.719 255.457C284.343 253.453 281.13 250.918 279.265 247.459C277.4 244 277.14 239.467 279.43 236.274" fill="#F2F2F2"/>
<path d="M55.0763 229.509C56.209 233.631 58.7609 237.218 62.2804 239.637C63.641 240.565 65.2509 241.455 65.7164 243.036C65.9613 244.044 65.8104 245.108 65.2949 246.008C64.7803 246.897 64.1542 247.715 63.4319 248.444L63.366 248.692C59.9893 246.688 56.777 244.153 54.9117 240.694C53.0465 237.235 52.7861 232.701 55.0763 229.509" fill="#F2F2F2"/>
<path d="M313.253 49.2902C326.843 49.2902 337.86 38.2562 337.86 24.6451C337.86 11.034 326.843 0 313.253 0C299.663 0 288.646 11.034 288.646 24.6451C288.646 38.2562 299.663 49.2902 313.253 49.2902Z" fill="#FEB240"/>
<path d="M357.657 5.73622C345.732 4.12175 332.117 10.5776 329.026 22.226C328.247 20.1549 326.831 18.3854 324.982 17.1733C323.134 15.9611 320.948 15.3689 318.741 15.4823C316.534 15.5958 314.421 16.4089 312.705 17.8042C310.99 19.1996 309.762 21.1049 309.199 23.245L310.565 24.2243C336.12 29.7595 362.575 29.6397 388.08 23.8733C379.785 15.1418 369.583 7.35066 357.657 5.73622Z" fill="#F0F0F0"/>
<path d="M306.515 38.5964C294.589 36.9819 280.975 43.4378 277.884 55.0861C277.105 53.015 275.689 51.2456 273.84 50.0334C271.991 48.8212 269.805 48.2291 267.599 48.3425C265.392 48.4559 263.278 49.269 261.563 50.6644C259.848 52.0597 258.62 53.9651 258.057 56.1051L259.422 57.0845C284.978 62.6196 311.432 62.4998 336.937 56.7335C328.642 48.0019 318.44 40.2108 306.515 38.5964Z" fill="#F0F0F0"/>
<path d="M410.6 44.8097C410.55 44.8098 410.501 44.8022 410.454 44.7871C282.882 4.37966 170.445 9.66364 98.5858 21.2118C88.8065 22.7828 79.0011 24.5973 69.4419 26.6053C67.0014 27.1173 64.4695 27.6661 61.9167 28.2376C58.868 28.9176 55.8597 29.6179 52.9752 30.3183C51.7294 30.6137 50.508 30.9115 49.3109 31.2116C47.4975 31.6599 45.6576 32.1271 43.6853 32.6405C41.4813 33.2096 39.2421 33.8066 37.0282 34.4149C37.0201 34.4178 37.0119 34.4201 37.0035 34.422L37.0037 34.4225C34.5032 35.1063 32.0159 35.8099 29.6105 36.5126C28.3086 36.8892 27.0515 37.2606 25.8475 37.6272C25.7129 37.6645 25.5937 37.7004 25.4729 37.7372L25.2142 37.816C25.0644 37.8618 24.9164 37.9066 24.7685 37.9491L24.759 37.9519L24.7593 37.9524L24.3677 38.0742C23.9008 38.2157 23.4452 38.354 22.9971 38.4918C11.1545 42.1482 4.64429 44.7493 4.57997 44.7748C4.52116 44.7984 4.45828 44.8102 4.39493 44.8095C4.33157 44.8088 4.26898 44.7955 4.21072 44.7706C4.15246 44.7456 4.09968 44.7094 4.05539 44.664C4.01111 44.6187 3.97618 44.565 3.9526 44.5061C3.92903 44.4472 3.91727 44.3842 3.918 44.3207C3.91873 44.2573 3.93193 44.1946 3.95684 44.1362C3.98176 44.0779 4.0179 44.025 4.06322 43.9807C4.10853 43.9363 4.16212 43.9013 4.22094 43.8777C4.28573 43.8522 10.8278 41.2379 22.7134 37.5678C23.1632 37.4295 23.62 37.2913 24.0883 37.1492L24.4521 37.036C24.4646 37.0312 24.477 37.0275 24.4898 37.0237C24.637 36.9817 24.784 36.9369 24.9334 36.8916L25.1925 36.8127C25.3216 36.7736 25.4488 36.7349 25.5791 36.699C26.775 36.3347 28.0363 35.9624 29.3415 35.5844C31.7478 34.8812 34.2375 34.1776 36.7399 33.4928C36.7477 33.49 36.7557 33.4881 36.7634 33.4858V33.4853C38.985 32.8751 41.2325 32.2758 43.4435 31.7048C45.4189 31.1909 47.2624 30.7227 49.0788 30.2735C50.281 29.9738 51.5048 29.6754 52.7502 29.3782C55.6381 28.677 58.6524 27.9757 61.7066 27.2943C64.2634 26.7223 66.7995 26.1721 69.244 25.6596C78.818 23.6483 88.6388 21.831 98.4329 20.2576C170.395 8.69294 282.993 3.40043 410.745 43.8659C410.855 43.9006 410.948 43.9736 411.009 44.0716C411.07 44.1696 411.094 44.2861 411.076 44.4001C411.059 44.5142 411.001 44.6182 410.914 44.6933C410.826 44.7684 410.715 44.8097 410.6 44.8097Z" fill="#CCCCCC"/>
<path d="M126.887 202.882C126.72 202.393 126.439 201.951 126.067 201.592C125.93 201.465 125.781 201.35 125.623 201.249C124.364 200.408 122.482 200.22 121.285 201.249C121.165 201.354 121.054 201.468 120.953 201.592C120.596 202.032 120.229 202.462 119.852 202.882C119.235 203.588 118.603 204.269 117.942 204.931C117.754 205.115 117.566 205.303 117.373 205.487C117.262 205.598 117.151 205.704 117.04 205.811C116.615 206.217 116.181 206.608 115.742 206.995C115.51 207.202 115.279 207.405 115.042 207.604C114.69 207.898 114.338 208.193 113.981 208.478C113.947 208.502 113.913 208.527 113.879 208.556C113.87 208.56 113.865 208.57 113.855 208.575C113.85 208.575 113.846 208.575 113.841 208.585C113.828 208.59 113.816 208.598 113.807 208.609C113.701 208.681 113.628 208.73 113.575 208.773C113.595 208.763 113.614 208.749 113.633 208.739C113.546 208.807 113.455 208.874 113.368 208.942C112.524 209.566 111.66 210.165 110.777 210.725C108.592 212.126 106.298 213.346 103.916 214.374C103.757 214.437 103.593 214.504 103.429 214.567C97.1924 217.126 90.4275 218.124 83.7192 217.476C83.0341 217.423 82.3489 217.35 81.6638 217.259C80.8726 217.143 80.0861 217.003 79.3045 216.843C76.3288 216.248 73.4172 215.368 70.6101 214.214C67.0987 212.604 63.7589 210.641 60.642 208.357C60.1595 208.014 59.6722 207.671 59.1849 207.338C59.7398 205.975 60.285 204.612 60.8157 203.24C61.0811 202.578 61.3368 201.916 61.5877 201.249C63.561 196.112 65.4138 190.927 67.1893 185.723C68.9842 180.45 70.6777 175.148 72.2699 169.814C72.4339 169.273 72.5931 168.732 72.7475 168.191C73.5822 165.373 74.3832 162.55 75.1503 159.72C75.2227 159.444 75.2999 159.174 75.3674 158.898C75.5894 158.086 75.8065 157.274 76.0188 156.463C76.5013 154.631 75.4108 152.442 73.4906 152.002C72.566 151.765 71.5855 151.896 70.7557 152.368C69.9259 152.841 69.3115 153.617 69.042 154.534C68.8346 155.317 68.6271 156.095 68.4148 156.878C67.3968 160.662 66.3257 164.433 65.2015 168.191C65.0374 168.732 64.8734 169.273 64.7093 169.814C62.2294 178 59.5065 186.104 56.5409 194.126C56.1838 195.097 55.822 196.065 55.4553 197.03C55.2768 197.504 55.0982 197.977 54.9149 198.451C54.5627 199.384 54.2008 200.316 53.839 201.249C53.6315 201.795 53.4192 202.341 53.2069 202.882C53.067 203.225 52.9319 203.569 52.7968 203.907C51.4212 203.412 49.9959 203.069 48.5461 202.882L48.3145 202.853C47.1905 202.718 46.0538 202.728 44.9323 202.882C43.2538 203.078 41.6388 203.642 40.2014 204.532C38.7641 205.422 37.5395 206.617 36.6143 208.034C34.3128 211.663 34.3418 216.853 37.5696 219.936C40.8939 223.111 45.9262 223.086 49.8392 221.1C51.9128 219.977 53.6612 218.335 54.9149 216.336C55.3952 215.611 55.8365 214.861 56.2369 214.089C56.3382 214.156 56.4396 214.224 56.5409 214.296C56.9269 214.567 57.3129 214.842 57.694 215.113C59.9149 216.725 62.2553 218.164 64.6949 219.419C69.9404 222.031 75.5869 223.741 81.3985 224.478C81.5288 224.493 81.6542 224.512 81.7845 224.527C82.4262 224.609 83.0727 224.672 83.7192 224.725C92.9936 225.425 102.279 223.524 110.536 219.235C111.235 218.873 111.928 218.493 112.615 218.095C113.682 217.476 114.724 216.819 115.742 216.123C116.297 215.746 116.837 215.364 117.373 214.963C119.713 213.237 121.894 211.304 123.891 209.189C124.648 208.391 125.374 207.568 126.067 206.719C126.722 206.025 127.1 205.113 127.128 204.158C127.125 203.722 127.043 203.29 126.887 202.882ZM46.9925 214.393C47.0938 214.321 47.1952 214.243 47.2917 214.166C47.2627 214.238 47.1228 214.321 46.9925 214.393H46.9925ZM48.5413 212.832C48.4303 212.958 48.329 213.083 48.218 213.209C47.8804 213.588 47.5177 213.943 47.1324 214.272C47.0794 214.321 47.0215 214.369 46.9636 214.412C46.9629 214.412 46.9623 214.412 46.9617 214.413C46.9611 214.413 46.9606 214.413 46.9601 214.414C46.9597 214.414 46.9593 214.415 46.9591 214.415C46.9588 214.416 46.9587 214.417 46.9587 214.417C46.889 214.448 46.8214 214.484 46.7561 214.524C46.5486 214.649 46.3363 214.765 46.1192 214.871C45.6941 215.028 45.2568 215.149 44.8117 215.234C44.4697 215.259 44.1264 215.262 43.784 215.244H43.7743C43.538 215.191 43.3045 215.126 43.0747 215.05C42.959 214.992 42.848 214.925 42.737 214.857C42.6936 214.818 42.655 214.78 42.6309 214.755C42.5837 214.712 42.5402 214.666 42.5006 214.615C42.5006 214.615 42.5005 214.614 42.5003 214.613C42.5 214.613 42.4997 214.612 42.4992 214.612C42.4988 214.611 42.4982 214.611 42.4976 214.611C42.4971 214.611 42.4964 214.61 42.4958 214.611C42.4427 214.514 42.3848 214.417 42.3317 214.321C42.329 214.318 42.3273 214.315 42.3269 214.311C42.2883 214.19 42.2545 214.064 42.2256 213.939C42.2151 213.718 42.2167 213.497 42.2304 213.277C42.2952 212.968 42.3822 212.664 42.491 212.368C42.5886 212.158 42.6999 211.955 42.8239 211.759C42.8335 211.74 42.8818 211.663 42.9349 211.576C42.9397 211.571 42.9397 211.571 42.9397 211.566C43.012 211.484 43.0844 211.397 43.1616 211.32C43.2919 211.175 43.4318 211.049 43.5717 210.919C43.8439 210.74 44.1257 210.577 44.4161 210.431C44.8767 210.267 45.3493 210.139 45.8298 210.049C46.5382 209.992 47.2502 209.999 47.9575 210.068C48.6274 210.184 49.2884 210.348 49.9357 210.556C49.5434 211.319 49.0968 212.052 48.5992 212.75C48.5799 212.779 48.5606 212.808 48.5413 212.832ZM43.1761 211.242C43.1336 211.311 43.0834 211.374 43.0265 211.431C43.0648 211.36 43.1154 211.296 43.1761 211.242Z" fill="#3F3D56"/>
<path d="M112.385 153.529C112.341 155.047 112.298 156.564 112.254 158.081C112.163 161.45 112.068 164.819 111.97 168.191C111.868 171.984 111.762 175.776 111.651 179.566C111.598 181.523 111.544 183.48 111.487 185.437C111.338 190.71 111.19 195.98 111.043 201.249C111.029 201.795 111.01 202.336 110.995 202.882C110.923 205.497 110.85 208.111 110.778 210.725C110.696 213.562 110.616 216.398 110.537 219.235C110.479 221.361 110.419 223.489 110.358 225.619C109.924 241.048 109.49 256.478 109.056 271.908C109.037 272.863 108.65 273.775 107.975 274.45C107.301 275.126 106.391 275.514 105.437 275.532C104.48 275.525 103.564 275.14 102.887 274.462C102.21 273.784 101.826 272.867 101.818 271.908C102.06 263.229 102.304 254.55 102.552 245.871C102.769 238.023 102.989 230.176 103.213 222.328C103.285 219.742 103.357 217.156 103.43 214.567C103.541 210.672 103.65 206.777 103.758 202.882C103.772 202.336 103.792 201.795 103.806 201.249C103.816 200.771 103.83 200.297 103.845 199.819C104.057 192.256 104.269 184.692 104.482 177.126C104.569 174.149 104.652 171.171 104.733 168.191C104.829 164.794 104.926 161.398 105.022 158.004C105.065 156.511 105.104 155.023 105.147 153.529C105.166 152.574 105.553 151.663 106.228 150.987C106.902 150.311 107.812 149.923 108.766 149.905C109.723 149.913 110.639 150.297 111.316 150.975C111.993 151.653 112.377 152.57 112.385 153.529Z" fill="#3F3D56"/>
<path d="M310.891 154.535C307.097 168.926 302.562 183.11 297.304 197.032C295.853 200.872 294.369 204.704 292.783 208.49L293.147 207.624C292.439 209.428 291.535 211.147 290.451 212.752C290.377 212.856 290.302 212.958 290.225 213.06C290.6 212.58 290.671 212.485 290.439 212.775C290.316 212.92 290.195 213.066 290.069 213.208C289.731 213.586 289.368 213.942 288.983 214.273C288.887 214.356 288.788 214.437 288.688 214.516L289.141 214.164C289.088 214.288 288.72 214.453 288.605 214.523C288.233 214.748 287.845 214.944 287.445 215.112L288.309 214.746C287.652 215.011 286.967 215.2 286.268 215.307L287.229 215.178C286.542 215.273 285.845 215.28 285.156 215.2L286.118 215.33C285.554 215.252 285.002 215.103 284.475 214.886L285.339 215.252C285.058 215.129 284.788 214.984 284.529 214.819C284.398 214.733 283.996 214.428 284.522 214.831C285.069 215.249 284.592 214.867 284.48 214.755C284.386 214.663 284.302 214.562 284.21 214.468C283.784 214.031 284.691 215.22 284.401 214.709C284.247 214.452 284.105 214.188 283.978 213.918L284.342 214.784C284.176 214.371 284.059 213.942 283.991 213.502L284.12 214.466C284.051 213.92 284.051 213.367 284.119 212.82L283.99 213.784C284.078 213.174 284.239 212.577 284.47 212.005L284.105 212.871C284.265 212.487 284.455 212.116 284.673 211.761C284.773 211.577 284.891 211.404 285.025 211.243C285.048 211.251 284.413 211.974 284.75 211.609C284.838 211.513 284.921 211.412 285.01 211.318C285.153 211.166 285.306 211.027 285.457 210.884C285.961 210.403 284.751 211.351 285.333 210.97C285.754 210.693 286.198 210.45 286.659 210.246L285.795 210.611C286.567 210.293 287.377 210.076 288.205 209.964L287.243 210.093C288.28 209.974 289.327 209.986 290.36 210.13L289.398 210.001C290.707 210.199 291.986 210.56 293.206 211.073L292.341 210.708C294.942 211.826 297.245 213.486 299.544 215.114C301.765 216.725 304.104 218.164 306.543 219.418C311.789 222.031 317.436 223.741 323.248 224.479C331.583 225.502 340.041 224.412 347.846 221.309C355.651 218.206 362.553 213.189 367.919 206.72C368.573 206.024 368.951 205.112 368.979 204.157C368.972 203.197 368.592 202.278 367.919 201.594C366.591 200.373 364.083 200.029 362.801 201.594C361.586 203.08 360.28 204.488 358.89 205.811C358.241 206.428 357.575 207.025 356.891 207.604C356.501 207.934 356.105 208.258 355.704 208.576C355.514 208.726 354.923 209.126 355.831 208.48C355.623 208.628 355.423 208.79 355.218 208.942C352.179 211.185 348.886 213.061 345.408 214.53L346.272 214.165C342.54 215.733 338.62 216.809 334.61 217.365L335.572 217.236C331.448 217.779 327.269 217.773 323.146 217.217L324.108 217.347C319.986 216.78 315.955 215.68 312.115 214.075L312.98 214.441C309.274 212.799 305.758 210.758 302.492 208.356C300.793 207.096 299 205.966 297.13 204.976C294.952 203.862 292.593 203.144 290.164 202.856C285.61 202.319 280.97 204.095 278.466 208.036C276.162 211.663 276.192 216.852 279.418 219.936C282.741 223.112 287.774 223.085 291.69 221.098C295.462 219.185 297.728 215.21 299.321 211.462C302.906 203.027 306.081 194.397 309.038 185.723C311.964 177.142 314.617 168.473 316.998 159.718C317.293 158.634 317.584 157.549 317.87 156.462C318.353 154.631 317.262 152.441 315.343 152.004C314.418 151.765 313.437 151.896 312.606 152.368C311.776 152.841 311.161 153.617 310.891 154.535L310.891 154.535Z" fill="#3F3D56"/>
<path d="M346.997 153.529L345.694 199.82L344.399 245.87L343.666 271.908C343.674 272.867 344.058 273.784 344.735 274.462C345.412 275.14 346.327 275.524 347.285 275.532C348.239 275.514 349.148 275.126 349.823 274.45C350.498 273.775 350.885 272.864 350.903 271.908L352.206 225.617L353.501 179.568L354.234 153.529C354.226 152.57 353.842 151.653 353.165 150.975C352.488 150.297 351.573 149.913 350.616 149.905C349.662 149.923 348.752 150.311 348.077 150.987C347.402 151.662 347.015 152.574 346.997 153.529Z" fill="#3F3D56"/>
<path opacity="0.2" d="M221.746 258.984H222.87V207.741H249.083V206.618H222.87V184.996H243.113C242.816 184.618 242.511 184.245 242.197 183.876H222.87V169.595C222.498 169.436 222.124 169.284 221.746 169.139V183.876H199.72V165.578C199.343 165.596 198.971 165.622 198.596 165.653V183.876H181.024V170.224C180.647 170.392 180.275 170.568 179.906 170.752V183.876H165.135V184.996H179.906V206.618H165.135V207.741H179.906V258.984H181.024V207.741C183.332 207.74 185.617 208.195 187.749 209.079C189.882 209.964 191.819 211.26 193.451 212.894C195.083 214.529 196.377 216.469 197.26 218.604C198.143 220.74 198.597 223.029 198.596 225.34V258.984H199.72V207.741H221.746V258.984ZM181.024 206.618V184.996H198.596V206.618H181.024ZM199.72 206.618V184.996H200.161C202.996 184.996 205.803 185.555 208.422 186.642C211.041 187.729 213.42 189.322 215.425 191.329C217.429 193.337 219.019 195.721 220.104 198.344C221.189 200.967 221.747 203.779 221.746 206.618H199.72Z" fill="black"/>
<path d="M214.883 243.619C213.469 249.939 210.08 255.644 205.21 259.904C204.853 260.214 204.495 260.513 204.124 260.808C203.222 260.89 202.326 260.974 201.437 261.059C200.698 261.127 199.97 261.199 199.246 261.267L199.116 261.282L199.024 260.489L198.657 257.28C197.235 254.954 196.353 252.338 196.078 249.624C195.802 246.91 196.14 244.169 197.065 241.604C198.339 238.163 200.645 235.124 202.913 232.109C206.044 227.943 209.089 223.826 209.2 218.747C210.74 220.722 212.021 222.887 213.011 225.189C212.077 225.629 211.238 226.248 210.541 227.01C210.343 227.228 210.145 227.532 210.28 227.793C210.396 228.016 210.686 228.069 210.937 228.098C211.54 228.16 212.148 228.223 212.751 228.286C213.233 228.339 213.716 228.388 214.198 228.441C214.782 230.36 215.178 232.331 215.38 234.327C215.705 237.431 215.538 240.567 214.883 243.619Z" fill="#3F3D56"/>
<path d="M230.902 230.954C228.055 233.027 226.39 236.008 225.097 239.294C223.772 239.719 222.58 240.482 221.638 241.507C221.44 241.725 221.242 242.029 221.377 242.29C221.493 242.513 221.783 242.566 222.034 242.595C222.637 242.658 223.245 242.72 223.848 242.783C222.555 246.668 221.368 250.689 219.081 253.97C217.56 256.137 215.577 257.937 213.276 259.242C212.649 259.6 212.002 259.921 211.337 260.204C208.886 260.392 206.481 260.594 204.124 260.808C203.221 260.89 202.326 260.974 201.436 261.059C200.698 261.127 199.97 261.199 199.246 261.267C199.241 261.001 199.241 260.735 199.246 260.47C199.398 253.39 201.999 246.582 206.604 241.208C206.821 240.957 207.043 240.71 207.27 240.464C209.602 237.968 212.346 235.892 215.38 234.327C220.161 231.837 225.52 230.672 230.902 230.954Z" fill="#FEB240"/>
<path d="M202.272 258.58L201.717 260.223L201.437 261.059C200.699 261.127 199.97 261.199 199.246 261.267L199.116 261.282C198.315 261.364 197.519 261.446 196.723 261.528C196.516 261.286 196.308 261.04 196.106 260.789C191.069 254.681 188.652 246.824 189.382 238.937C190.111 231.049 193.928 223.771 199.999 218.694C199.362 222.033 200.105 225.232 201.326 228.407C201.196 228.46 201.07 228.513 200.95 228.571C200.016 229.012 199.177 229.63 198.479 230.393C198.282 230.61 198.084 230.915 198.219 231.176C198.335 231.398 198.624 231.451 198.875 231.48C199.478 231.543 200.086 231.606 200.689 231.669C201.172 231.722 201.654 231.77 202.137 231.823C202.363 231.848 202.59 231.872 202.817 231.896C202.851 231.968 202.88 232.036 202.913 232.109C204.288 235.095 205.77 238.096 206.604 241.208C206.814 241.989 206.978 242.781 207.097 243.581C207.468 246.283 207.227 249.035 206.392 251.632C205.557 254.228 204.149 256.603 202.272 258.58Z" fill="#FEB240"/>
<path d="M250.837 188.492C246.684 180.377 240.249 173.55 232.68 168.532C225.088 163.522 216.375 160.471 207.32 159.651C206.133 159.542 204.943 159.479 203.75 159.461C202.34 159.44 181.138 165.565 174.035 170.567C166.936 175.507 161.097 182.05 156.987 189.667C152.885 197.326 150.868 205.932 151.137 214.619C151.489 223.358 153.921 231.887 158.231 239.494C162.482 247.076 168.518 253.503 175.815 258.217C183.215 262.946 190.649 275.486 199.386 275.928C208.189 276.375 218.229 264.546 226.258 260.954C234.287 257.333 241.229 251.667 246.39 244.522C251.406 237.519 254.651 229.403 255.846 220.868C257.088 212.13 256.509 203.118 253.53 194.766C252.765 192.62 251.866 190.524 250.837 188.492C249.979 186.798 247.462 186.174 245.886 187.192C245.075 187.692 244.487 188.487 244.245 189.41C244.003 190.334 244.126 191.315 244.588 192.15C245.093 193.145 245.561 194.156 245.995 195.184L245.63 194.318C247.271 198.269 248.386 202.418 248.948 206.659L248.819 205.696C249.416 210.297 249.406 214.957 248.787 219.556L248.916 218.593C248.29 223.191 247.065 227.687 245.271 231.966L245.636 231.1C244.713 233.283 243.637 235.398 242.417 237.43C241.798 238.456 241.142 239.458 240.448 240.436C240.143 240.865 239.829 241.287 239.513 241.708C239.099 242.256 240.076 240.991 239.649 241.529C239.576 241.621 239.504 241.713 239.431 241.804C239.212 242.079 238.989 242.35 238.764 242.62C237.26 244.417 235.618 246.095 233.854 247.637C233.415 248.022 232.968 248.397 232.514 248.764C232.288 248.947 232.064 249.137 231.828 249.307C231.837 249.301 232.59 248.728 232.145 249.061C232.004 249.165 231.865 249.271 231.725 249.376C230.789 250.07 229.828 250.729 228.842 251.353C226.573 252.785 224.192 254.031 221.723 255.08L222.587 254.715C218.328 256.511 213.851 257.738 209.273 258.364L210.235 258.235C205.658 258.854 201.019 258.862 196.441 258.259L197.403 258.388C193.241 257.829 189.171 256.727 185.295 255.11L186.159 255.475C183.914 254.526 181.749 253.396 179.686 252.097C178.665 251.453 177.67 250.769 176.703 250.045C176.564 249.941 176.428 249.837 176.29 249.733C175.848 249.399 176.607 249.979 176.613 249.983C176.357 249.798 176.109 249.601 175.873 249.391C175.405 249.01 174.945 248.62 174.492 248.221C172.68 246.622 170.988 244.893 169.429 243.046C169.039 242.584 168.657 242.115 168.284 241.639C168.122 241.433 167.827 241.016 168.479 241.895C168.393 241.779 168.304 241.666 168.218 241.55C168.01 241.274 167.805 240.996 167.602 240.715C166.894 239.734 166.22 238.727 165.582 237.697C164.139 235.365 162.88 232.924 161.816 230.396L162.18 231.262C160.439 227.113 159.248 222.753 158.639 218.293L158.768 219.257C158.218 215.146 158.21 210.981 158.745 206.869L158.615 207.832C159.163 203.85 160.233 199.957 161.797 196.254L161.432 197.12C162.416 194.802 163.577 192.564 164.904 190.424C165.568 189.354 166.272 188.309 167.016 187.291C167.185 187.059 167.356 186.829 167.529 186.601C167.685 186.394 168.115 185.879 167.381 186.788C167.453 186.699 167.523 186.607 167.593 186.517C168.002 186 168.42 185.49 168.848 184.988C170.468 183.089 172.223 181.309 174.099 179.662C174.573 179.246 175.054 178.839 175.544 178.44C175.766 178.259 175.989 178.08 176.215 177.902C176.305 177.832 176.396 177.762 176.486 177.69C175.522 178.459 176.218 177.9 176.437 177.735C177.445 176.979 178.48 176.26 179.542 175.579C181.902 174.067 184.386 172.757 186.965 171.661L186.101 172.027C189.845 170.452 206.433 166.736 209.45 167.141L208.488 167.012C212.923 167.632 217.257 168.831 221.38 170.579L220.516 170.214C222.605 171.103 224.636 172.124 226.595 173.273C227.574 173.847 228.534 174.453 229.474 175.091C229.919 175.392 230.36 175.701 230.795 176.016C231.013 176.174 231.23 176.333 231.445 176.494C231.565 176.583 231.683 176.674 231.803 176.764C232.304 177.14 231.112 176.218 231.638 176.635C233.397 178.019 235.068 179.512 236.64 181.106C237.412 181.894 238.158 182.707 238.877 183.544C239.246 183.974 239.607 184.41 239.961 184.853C240.137 185.073 240.735 185.868 240.002 184.894C240.181 185.132 240.362 185.368 240.539 185.608C242.064 187.675 243.418 189.863 244.588 192.15C245.453 193.841 247.959 194.471 249.539 193.451C250.351 192.95 250.939 192.155 251.181 191.232C251.423 190.308 251.3 189.327 250.837 188.492Z" fill="#3F3D56"/>
<path d="M208.672 247.638C208.299 247.655 207.929 247.557 207.613 247.356C207.297 247.156 207.05 246.863 206.906 246.518C206.762 246.172 206.727 245.791 206.806 245.425C206.886 245.059 207.076 244.726 207.35 244.472C207.396 244.289 207.429 244.157 207.475 243.974C207.459 243.934 207.442 243.895 207.426 243.855C205.747 239.845 195.033 251.023 194.57 254.791C194.366 256.457 194.452 258.146 194.824 259.782C191.354 252.2 189.552 243.959 189.54 235.619C189.54 233.526 189.656 231.434 189.888 229.354C190.08 227.649 190.347 225.956 190.687 224.275C192.547 215.155 196.541 206.607 202.34 199.332C205.657 199.518 208.563 199.012 208.844 192.574C208.894 191.429 209.742 190.437 209.929 189.309C209.612 189.351 209.29 189.377 208.974 189.398C208.875 189.403 208.771 189.408 208.673 189.413L208.635 189.415C208.287 189.431 207.942 189.345 207.642 189.169C207.341 188.993 207.098 188.733 206.941 188.422C206.784 188.11 206.721 187.76 206.758 187.413C206.795 187.066 206.932 186.738 207.151 186.467C207.288 186.298 207.425 186.13 207.562 185.961C207.769 185.701 207.982 185.447 208.19 185.187C208.214 185.162 208.236 185.136 208.257 185.109C208.496 184.812 208.735 184.521 208.974 184.225C208.538 183.548 207.952 182.98 207.261 182.567C204.868 181.163 201.567 182.135 199.838 184.303C198.105 186.471 197.778 189.512 198.38 192.221C198.972 194.525 199.951 196.712 201.276 198.688C201.146 198.854 201.011 199.015 200.882 199.182C198.51 202.236 196.442 205.517 194.709 208.976C195.199 205.14 189.203 191.285 186.884 188.351C184.099 184.826 178.387 186.365 177.896 190.833C177.892 190.876 177.887 190.919 177.882 190.962C178.227 191.157 178.564 191.364 178.894 191.582C179.308 191.859 179.629 192.256 179.815 192.719C180.001 193.182 180.043 193.691 179.935 194.178C179.827 194.666 179.575 195.109 179.211 195.45C178.847 195.792 178.389 196.015 177.897 196.091L177.846 196.099C173.236 202.692 188.016 219.852 191.715 215.999C189.974 220.942 188.882 226.09 188.466 231.314C188.231 234.397 188.244 237.493 188.507 240.573L188.492 240.464C187.67 233.755 173.568 223.781 169.45 224.612C167.078 225.091 164.741 224.982 165.101 227.379C165.107 227.417 165.113 227.455 165.119 227.493C165.758 227.754 166.38 228.054 166.982 228.393C167.327 228.587 167.664 228.794 167.994 229.012C168.408 229.29 168.729 229.686 168.915 230.149C169.101 230.612 169.142 231.121 169.035 231.608C168.927 232.096 168.675 232.539 168.311 232.88C167.947 233.222 167.489 233.445 166.996 233.521L166.946 233.529C166.91 233.534 166.878 233.539 166.842 233.544C164.743 240.777 180.307 252.449 189.769 248.735H189.774C190.712 252.816 192.07 256.788 193.828 260.588H208.309C208.361 260.427 208.408 260.26 208.455 260.099C207.114 260.183 205.768 260.103 204.448 259.86C205.522 258.539 206.596 257.209 207.671 255.888C207.695 255.863 207.717 255.837 207.738 255.81C208.283 255.134 208.834 254.464 209.379 253.788L209.379 253.787C209.408 251.716 209.17 249.649 208.673 247.638L208.672 247.638ZM192.089 214.965L192.096 214.954L192.089 214.975V214.965ZM188.881 243.926L188.757 243.645C188.762 243.443 188.762 243.24 188.757 243.032C188.757 242.975 188.746 242.918 188.746 242.86C188.793 243.219 188.834 243.578 188.886 243.937L188.881 243.926Z" fill="#3F3D56"/>
<path d="M45.9558 217.457C48.8869 217.457 51.2631 215.077 51.2631 212.141C51.2631 209.205 48.8869 206.826 45.9558 206.826C43.0246 206.826 40.6484 209.205 40.6484 212.141C40.6484 215.077 43.0246 217.457 45.9558 217.457Z" fill="#3F3D56"/>
<path d="M109.643 275.445C112.574 275.445 114.951 273.065 114.951 270.13C114.951 267.194 112.574 264.814 109.643 264.814C106.712 264.814 104.336 267.194 104.336 270.13C104.336 273.065 106.712 275.445 109.643 275.445Z" fill="#3F3D56"/>
<path d="M351.368 275.445C354.299 275.445 356.675 273.065 356.675 270.13C356.675 267.194 354.299 264.814 351.368 264.814C348.437 264.814 346.061 267.194 346.061 270.13C346.061 273.065 348.437 275.445 351.368 275.445Z" fill="#3F3D56"/>
<path d="M364.395 207.792C367.326 207.792 369.703 205.412 369.703 202.476C369.703 199.541 367.326 197.161 364.395 197.161C361.464 197.161 359.088 199.541 359.088 202.476C359.088 205.412 361.464 207.792 364.395 207.792Z" fill="#3F3D56"/>
<path d="M348.956 158.502C351.887 158.502 354.263 156.122 354.263 153.186C354.263 150.25 351.887 147.871 348.956 147.871C346.025 147.871 343.648 150.25 343.648 153.186C343.648 156.122 346.025 158.502 348.956 158.502Z" fill="#3F3D56"/>
<path d="M127.495 202.476C127.492 203.834 126.968 205.139 126.031 206.12C125.094 207.102 123.816 207.685 122.462 207.749C121.108 207.813 119.781 207.353 118.756 206.465C117.731 205.577 117.086 204.327 116.954 202.976C116.823 201.625 117.216 200.274 118.051 199.205C118.886 198.135 120.1 197.428 121.441 197.23C122.782 197.031 124.148 197.357 125.256 198.139C126.364 198.922 127.13 200.101 127.394 201.433C127.462 201.776 127.496 202.126 127.495 202.476Z" fill="#3F3D56"/>
<path d="M233.643 173.965C236.574 173.965 238.951 171.586 238.951 168.65C238.951 165.714 236.574 163.334 233.643 163.334C230.712 163.334 228.336 165.714 228.336 168.65C228.336 171.586 230.712 173.965 233.643 173.965Z" fill="#3F3D56"/>
<path d="M181.052 168.65C181.049 170.008 180.524 171.312 179.587 172.294C178.651 173.275 177.373 173.858 176.019 173.922C174.665 173.987 173.338 173.527 172.312 172.638C171.287 171.75 170.642 170.501 170.511 169.149C170.38 167.798 170.773 166.448 171.608 165.378C172.443 164.309 173.656 163.601 174.998 163.403C176.339 163.205 177.705 163.531 178.813 164.313C179.921 165.095 180.686 166.274 180.95 167.606C181.019 167.95 181.052 168.299 181.052 168.65Z" fill="#3F3D56"/>
<path d="M112.538 153.186C112.535 154.544 112.011 155.849 111.074 156.83C110.137 157.812 108.859 158.395 107.505 158.459C106.151 158.523 104.824 158.063 103.799 157.175C102.774 156.286 102.129 155.037 101.997 153.686C101.866 152.334 102.259 150.984 103.094 149.915C103.929 148.845 105.143 148.138 106.484 147.94C107.825 147.741 109.191 148.067 110.299 148.849C111.407 149.632 112.173 150.811 112.437 152.142C112.505 152.486 112.539 152.836 112.538 153.186Z" fill="#3F3D56"/>
<path d="M289.128 219.39C292.059 219.39 294.435 217.01 294.435 214.074C294.435 211.138 292.059 208.758 289.128 208.758C286.196 208.758 283.82 211.138 283.82 214.074C283.82 217.01 286.196 219.39 289.128 219.39Z" fill="#3F3D56"/>
<path d="M205.659 171.066C209.923 171.066 213.379 167.604 213.379 163.334C213.379 159.064 209.923 155.602 205.659 155.602C201.396 155.602 197.939 159.064 197.939 163.334C197.939 167.604 201.396 171.066 205.659 171.066Z" fill="#3F3D56"/>
<path d="M414.426 275.851L0.574482 276C0.499039 276 0.424333 275.985 0.354634 275.956C0.284934 275.927 0.221607 275.885 0.168261 275.831C0.114916 275.778 0.0725942 275.715 0.0437237 275.645C0.0148531 275.575 0 275.5 0 275.425C0 275.349 0.0148531 275.274 0.0437237 275.204C0.0725942 275.135 0.114916 275.071 0.168261 275.018C0.221607 274.964 0.284934 274.922 0.354634 274.893C0.424333 274.864 0.499039 274.849 0.574482 274.849L414.426 274.701C414.578 274.701 414.723 274.762 414.831 274.87C414.938 274.978 414.998 275.124 414.998 275.276C414.998 275.428 414.938 275.574 414.831 275.682C414.723 275.79 414.578 275.851 414.426 275.851Z" fill="#CACACA"/>
</svg>
