<svg width="192" height="150" viewBox="0 0 192 150" fill="none" xmlns="http://www.w3.org/2000/svg">
<path d="M152.195 148.85L30.7316 148.89C24.6295 148.892 19.1635 145.877 16.1107 140.827C14.5841 138.301 13.8206 135.531 13.8196 132.76C13.8186 129.989 14.5804 127.218 16.1048 124.691L76.7981 19.073C79.8476 14.02 85.3115 11.0025 91.4135 11.0005C97.5155 10.9985 102.982 14.0124 106.035 19.0633L166.812 124.655C168.335 127.173 169.096 129.941 169.097 132.71C169.097 135.479 168.335 138.25 166.81 140.777C163.761 145.83 158.297 148.848 152.195 148.85H152.195ZM15.3464 132.758C15.3462 135.28 28.7493 129.845 30.1378 132.142C32.9153 136.737 25.1795 147.435 30.731 147.433C30.731 147.433 162.717 144.646 165.491 140.049C166.878 137.751 167.571 135.23 167.57 132.709C167.569 130.188 166.874 127.667 165.485 125.37L104.708 19.7788C101.938 15.1971 96.9656 12.455 91.414 12.4568C85.865 12.4586 15.3466 130.235 15.3464 132.758H15.3464Z" fill="black"/>
<path d="M126.856 125.557C157.567 125.557 182.463 101.758 182.463 72.4014C182.463 43.0445 157.567 19.2461 126.856 19.2461C96.1456 19.2461 71.2498 43.0445 71.2498 72.4014C71.2498 101.758 96.1456 125.557 126.856 125.557Z" fill="#FEB240"/>
<path d="M126.866 104.986C129.686 104.986 131.972 102.801 131.972 100.105C131.972 97.4097 129.686 95.2246 126.866 95.2246C124.046 95.2246 121.76 97.4097 121.76 100.105C121.76 102.801 124.046 104.986 126.866 104.986Z" fill="white"/>
<path d="M126.844 39.8161C126.375 42.7951 127.216 43.4185 127.22 56.2615C127.225 69.1046 130.013 86.324 126.861 86.325C123.71 86.3261 122.557 50.789 111.614 47.6438C98.7474 43.9459 128.363 30.1724 126.844 39.8161Z" fill="white"/>
</svg>
